<svg xmlns="http://www.w3.org/2000/svg" xmlns:xlink="http://www.w3.org/1999/xlink" width="500" zoomAndPan="magnify" viewBox="0 0 375 374.999991" height="500" preserveAspectRatio="xMidYMid meet" version="1.0"><defs><g/></defs><rect x="-37.5" width="450" fill="#ffffff" y="-37.499999" height="449.999989" fill-opacity="1"/><rect x="-37.5" width="450" fill="#231f20" y="-37.499999" height="449.999989" fill-opacity="1"/><g fill="#fbfaf9" fill-opacity="1"><g transform="translate(51.436261, 214.951221)"><g><path d="M 47.671875 -10.34375 L 26.757812 -38 L 47.445312 -61.949219 C 52.503906 -67.796875 55.316406 -67.90625 59.476562 -68.132812 L 59.476562 -69.820312 C 52.617188 -69.480469 45.648438 -69.480469 38.789062 -69.820312 L 38.789062 -68.132812 C 43.511719 -67.90625 48.683594 -67.347656 44.074219 -61.949219 L 18.214844 -31.816406 L 18.214844 -62.511719 C 18.214844 -66.445312 20.351562 -67.457031 26.082031 -68.132812 L 26.082031 -69.820312 C 18.328125 -69.480469 10.007812 -69.480469 2.25 -69.820312 L 2.25 -68.132812 C 7.984375 -67.457031 10.117188 -66.445312 10.117188 -62.511719 L 10.117188 -7.308594 C 10.117188 -3.371094 7.984375 -2.359375 2.25 -1.6875 L 2.25 0 C 10.007812 -0.335938 18.328125 -0.335938 26.082031 0 L 26.082031 -1.6875 C 20.351562 -2.359375 18.214844 -3.371094 18.214844 -7.308594 L 18.214844 -27.996094 L 21.472656 -31.816406 L 39.351562 -8.207031 C 44.859375 -0.898438 49.246094 1.347656 59.027344 1.347656 L 61.722656 -0.785156 C 59.136719 -0.898438 52.617188 -3.824219 47.671875 -10.34375 Z M 47.671875 -10.34375 "/></g></g></g><g fill="#fbfaf9" fill-opacity="1"><g transform="translate(108.100288, 214.951221)"><g><path d="M 66.671875 -68.132812 L 66.671875 -69.820312 C 58.914062 -69.480469 50.59375 -69.480469 42.835938 -69.820312 L 42.835938 -68.132812 C 48.570312 -67.457031 50.707031 -66.445312 50.707031 -62.511719 L 50.707031 -36.203125 L 18.777344 -36.203125 L 18.777344 -62.511719 C 18.777344 -66.445312 20.910156 -67.457031 26.644531 -68.132812 L 26.644531 -69.820312 C 18.886719 -69.480469 10.570312 -69.480469 2.8125 -69.820312 L 2.8125 -68.132812 C 8.542969 -67.457031 10.679688 -66.445312 10.679688 -62.511719 L 10.679688 -7.308594 C 10.679688 -3.371094 8.542969 -2.359375 2.8125 -1.6875 L 2.8125 0 C 10.570312 -0.335938 18.886719 -0.335938 26.644531 0 L 26.644531 -1.6875 C 20.910156 -2.359375 18.777344 -3.371094 18.777344 -7.308594 L 18.777344 -33.617188 L 50.707031 -33.617188 L 50.707031 -7.308594 C 50.707031 -3.371094 48.570312 -2.359375 42.835938 -1.6875 L 42.835938 0 C 50.59375 -0.335938 58.914062 -0.335938 66.671875 0 L 66.671875 -1.6875 C 60.9375 -2.359375 58.800781 -3.371094 58.800781 -7.308594 L 58.800781 -62.511719 C 58.800781 -66.445312 60.9375 -67.457031 66.671875 -68.132812 Z M 66.671875 -68.132812 "/></g></g></g><path stroke-linecap="butt" transform="matrix(0.75, 0, 0, 0.75, 172.5401, 145.611348)" fill="none" stroke-linejoin="miter" d="M -0.00138276 1.002578 L 201.363214 1.002578 " stroke="#fbfaf9" stroke-width="2" stroke-opacity="1" stroke-miterlimit="4"/><path stroke-linecap="butt" transform="matrix(0.75, 0, 0, 0.75, 168.149626, 213.81318)" fill="none" stroke-linejoin="miter" d="M -0.00158501 0.999093 L 207.217179 0.999093 " stroke="#fbfaf9" stroke-width="2" stroke-opacity="1" stroke-miterlimit="4"/><g fill="#fbfaf9" fill-opacity="1"><g transform="translate(187.40674, 195.982074)"><g><path d="M 10.078125 -10.09375 L 10.078125 0 L 9.03125 0 L 9.03125 -4.65625 L 2.71875 -4.65625 L 2.71875 0 L 1.640625 0 L 1.640625 -10.09375 L 2.71875 -10.09375 L 2.71875 -5.59375 L 9.03125 -5.59375 L 9.03125 -10.09375 Z M 10.078125 -10.09375 "/></g></g></g><g fill="#fbfaf9" fill-opacity="1"><g transform="translate(207.056475, 195.982074)"><g><path d="M 8.78125 -0.921875 L 8.78125 0 L 1.640625 0 L 1.640625 -10.09375 L 8.5625 -10.09375 L 8.5625 -9.171875 L 2.71875 -9.171875 L 2.71875 -5.578125 L 7.9375 -5.578125 L 7.9375 -4.671875 L 2.71875 -4.671875 L 2.71875 -0.921875 Z M 8.78125 -0.921875 "/></g></g></g><g fill="#fbfaf9" fill-opacity="1"><g transform="translate(224.630559, 195.982074)"><g><path d="M 3.609375 -9.171875 L 0.0625 -9.171875 L 0.0625 -10.09375 L 8.21875 -10.09375 L 8.21875 -9.171875 L 4.671875 -9.171875 L 4.671875 0 L 3.609375 0 Z M 3.609375 -9.171875 "/></g></g></g><g fill="#fbfaf9" fill-opacity="1"><g transform="translate(240.8353, 195.982074)"><g><path d="M 12.125 -10.09375 L 12.125 0 L 11.109375 0 L 11.109375 -8.078125 L 7.140625 -1.28125 L 6.640625 -1.28125 L 2.671875 -8.03125 L 2.671875 0 L 1.640625 0 L 1.640625 -10.09375 L 2.53125 -10.09375 L 6.90625 -2.609375 L 11.25 -10.09375 Z M 12.125 -10.09375 "/></g></g></g><g fill="#fbfaf9" fill-opacity="1"><g transform="translate(262.531864, 195.982074)"><g><path d="M 7.96875 -2.703125 L 2.34375 -2.703125 L 1.140625 0 L 0.03125 0 L 4.640625 -10.09375 L 5.703125 -10.09375 L 10.3125 0 L 9.1875 0 Z M 7.59375 -3.5625 L 5.15625 -8.984375 L 2.734375 -3.5625 Z M 7.59375 -3.5625 "/></g></g></g><g fill="#fbfaf9" fill-opacity="1"><g transform="translate(280.797831, 195.982074)"><g><path d="M 10.078125 -10.09375 L 10.078125 0 L 9.203125 0 L 2.71875 -8.1875 L 2.71875 0 L 1.640625 0 L 1.640625 -10.09375 L 2.53125 -10.09375 L 9.03125 -1.90625 L 9.03125 -10.09375 Z M 10.078125 -10.09375 "/></g></g></g><g fill="#fbfaf9" fill-opacity="1"><g transform="translate(187.40674, 174.900803)"><g><path d="M 4.78125 -4.75 L 2.71875 -2.65625 L 2.71875 0 L 1.640625 0 L 1.640625 -10.09375 L 2.71875 -10.09375 L 2.71875 -4 L 8.640625 -10.09375 L 9.859375 -10.09375 L 5.5 -5.53125 L 10.171875 0 L 8.890625 0 Z M 4.78125 -4.75 "/></g></g></g><g fill="#fbfaf9" fill-opacity="1"><g transform="translate(205.586229, 174.900803)"><g><path d="M 7.96875 -2.703125 L 2.34375 -2.703125 L 1.140625 0 L 0.03125 0 L 4.640625 -10.09375 L 5.703125 -10.09375 L 10.3125 0 L 9.1875 0 Z M 7.59375 -3.5625 L 5.15625 -8.984375 L 2.734375 -3.5625 Z M 7.59375 -3.5625 "/></g></g></g><g fill="#fbfaf9" fill-opacity="1"><g transform="translate(223.852196, 174.900803)"><g><path d="M 8.53125 0 L 6.234375 -3.25 C 5.972656 -3.21875 5.703125 -3.203125 5.421875 -3.203125 L 2.71875 -3.203125 L 2.71875 0 L 1.640625 0 L 1.640625 -10.09375 L 5.421875 -10.09375 C 6.710938 -10.09375 7.722656 -9.785156 8.453125 -9.171875 C 9.179688 -8.554688 9.546875 -7.710938 9.546875 -6.640625 C 9.546875 -5.847656 9.34375 -5.179688 8.9375 -4.640625 C 8.539062 -4.097656 7.972656 -3.707031 7.234375 -3.46875 L 9.703125 0 Z M 5.390625 -4.109375 C 6.390625 -4.109375 7.15625 -4.328125 7.6875 -4.765625 C 8.21875 -5.210938 8.484375 -5.835938 8.484375 -6.640625 C 8.484375 -7.453125 8.21875 -8.078125 7.6875 -8.515625 C 7.15625 -8.953125 6.390625 -9.171875 5.390625 -9.171875 L 2.71875 -9.171875 L 2.71875 -4.109375 Z M 5.390625 -4.109375 "/></g></g></g><g fill="#fbfaf9" fill-opacity="1"><g transform="translate(242.204655, 174.900803)"><g><path d="M 6.0625 0.09375 C 5.0625 0.09375 4.15625 -0.128906 3.34375 -0.578125 C 2.53125 -1.023438 1.894531 -1.640625 1.4375 -2.421875 C 0.976562 -3.203125 0.75 -4.078125 0.75 -5.046875 C 0.75 -6.015625 0.976562 -6.890625 1.4375 -7.671875 C 1.894531 -8.453125 2.53125 -9.066406 3.34375 -9.515625 C 4.15625 -9.960938 5.0625 -10.1875 6.0625 -10.1875 C 7.0625 -10.1875 7.960938 -9.960938 8.765625 -9.515625 C 9.566406 -9.078125 10.195312 -8.460938 10.65625 -7.671875 C 11.113281 -6.890625 11.34375 -6.015625 11.34375 -5.046875 C 11.34375 -4.078125 11.113281 -3.195312 10.65625 -2.40625 C 10.195312 -1.625 9.566406 -1.007812 8.765625 -0.5625 C 7.960938 -0.125 7.0625 0.09375 6.0625 0.09375 Z M 6.0625 -0.859375 C 6.851562 -0.859375 7.570312 -1.039062 8.21875 -1.40625 C 8.863281 -1.769531 9.367188 -2.269531 9.734375 -2.90625 C 10.097656 -3.539062 10.28125 -4.253906 10.28125 -5.046875 C 10.28125 -5.835938 10.097656 -6.550781 9.734375 -7.1875 C 9.367188 -7.820312 8.863281 -8.320312 8.21875 -8.6875 C 7.570312 -9.050781 6.851562 -9.234375 6.0625 -9.234375 C 5.257812 -9.234375 4.53125 -9.050781 3.875 -8.6875 C 3.226562 -8.320312 2.71875 -7.820312 2.34375 -7.1875 C 1.976562 -6.550781 1.796875 -5.835938 1.796875 -5.046875 C 1.796875 -4.253906 1.976562 -3.539062 2.34375 -2.90625 C 2.71875 -2.269531 3.226562 -1.769531 3.875 -1.40625 C 4.53125 -1.039062 5.257812 -0.859375 6.0625 -0.859375 Z M 6.0625 -0.859375 "/></g></g></g><g fill="#fbfaf9" fill-opacity="1"><g transform="translate(262.229166, 174.900803)"><g><path d="M 1.640625 -10.09375 L 2.71875 -10.09375 L 2.71875 -0.921875 L 8.359375 -0.921875 L 8.359375 0 L 1.640625 0 Z M 1.640625 -10.09375 "/></g></g></g></svg>