<svg xmlns="http://www.w3.org/2000/svg" xmlns:xlink="http://www.w3.org/1999/xlink" width="500" zoomAndPan="magnify" viewBox="0 0 375 374.999991" height="500" preserveAspectRatio="xMidYMid meet" version="1.0"><defs><clipPath id="07a1c8c5bd"><path d="M 112.609375 120 L 253 120 L 253 259.800781 L 112.609375 259.800781 Z M 112.609375 120 " clip-rule="nonzero"/></clipPath><clipPath id="0d74a1d8e9"><path d="M 195 115 L 262.609375 115 L 262.609375 182 L 195 182 Z M 195 115 " clip-rule="nonzero"/></clipPath></defs><g clip-path="url(#07a1c8c5bd)"><path fill="#100f0d" d="M 144.421875 127.878906 C 145.621094 127.878906 146.714844 128.542969 147.261719 129.605469 L 161.589844 157.671875 C 162.226562 158.90625 161.960938 160.421875 160.964844 161.394531 L 153.957031 168.136719 C 151.679688 170.332031 151.136719 173.789062 152.652344 176.570312 C 162.628906 194.992188 177.820312 210.074219 196.332031 219.929688 C 199.140625 221.433594 202.589844 220.871094 204.773438 218.585938 L 211.488281 211.550781 C 212.445312 210.539062 213.964844 210.273438 215.214844 210.898438 L 243.394531 225.035156 C 244.964844 225.820312 245.589844 227.734375 244.804688 229.304688 C 244.660156 229.585938 244.472656 229.835938 244.257812 230.0625 L 223.777344 251.53125 C 223.03125 252.316406 221.925781 252.660156 220.847656 252.449219 C 170.203125 242.179688 130.535156 202.8125 119.949219 152.296875 C 119.722656 151.234375 120.066406 150.128906 120.851562 149.371094 L 142.199219 128.769531 C 142.785156 128.183594 143.585938 127.878906 144.410156 127.878906 Z M 144.421875 120.589844 C 141.71875 120.589844 139.109375 121.640625 137.152344 123.527344 L 115.804688 144.117188 C 113.210938 146.617188 112.089844 150.277344 112.835938 153.800781 C 124.023438 207.160156 165.929688 248.75 219.4375 259.589844 C 222.953125 260.308594 226.613281 259.152344 229.089844 256.558594 L 249.574219 235.105469 C 253.566406 230.914062 253.40625 224.292969 249.226562 220.300781 C 248.46875 219.597656 247.628906 218.984375 246.695312 218.53125 L 218.519531 204.394531 C 214.402344 202.320312 209.421875 203.183594 206.238281 206.523438 L 199.648438 213.425781 C 182.523438 204.273438 168.445312 190.308594 159.179688 173.273438 L 166.050781 166.636719 C 169.367188 163.429688 170.203125 158.457031 168.101562 154.34375 L 153.773438 126.296875 C 151.972656 122.785156 148.367188 120.589844 144.421875 120.589844 " fill-opacity="1" fill-rule="nonzero"/></g><g clip-path="url(#0d74a1d8e9)"><path fill="#100f0d" d="M 262.597656 177.488281 C 262.730469 179.84375 260.933594 181.863281 258.574219 181.984375 C 256.257812 182.117188 254.261719 180.375 254.074219 178.074219 C 252.089844 148.800781 228.773438 125.511719 199.460938 123.515625 C 197.105469 123.355469 195.332031 121.335938 195.492188 118.980469 C 195.652344 116.625 197.691406 114.855469 200.046875 115.015625 C 233.605469 117.292969 260.332031 143.972656 262.597656 177.488281 " fill-opacity="1" fill-rule="nonzero"/></g><path fill="#100f0d" d="M 203.269531 136.84375 C 200.953125 136.457031 198.757812 138.027344 198.371094 140.355469 C 197.984375 142.65625 199.527344 144.835938 201.832031 145.25 C 217.425781 147.921875 229.652344 160.132812 232.328125 175.707031 C 232.753906 178.03125 234.992188 179.5625 237.308594 179.136719 C 239.585938 178.726562 241.117188 176.558594 240.757812 174.269531 C 237.453125 155.128906 222.445312 140.140625 203.269531 136.84375 " fill-opacity="1" fill-rule="nonzero"/><path fill="#100f0d" d="M 202.257812 158.441406 C 199.996094 157.804688 197.636719 159.132812 197 161.394531 C 196.371094 163.640625 197.664062 165.984375 199.902344 166.636719 C 205.226562 168.164062 209.382812 172.3125 210.914062 177.621094 C 211.605469 179.867188 213.992188 181.144531 216.253906 180.453125 C 218.4375 179.777344 219.714844 177.488281 219.117188 175.265625 C 216.773438 167.140625 210.40625 160.78125 202.257812 158.441406 " fill-opacity="1" fill-rule="nonzero"/></svg>