<svg xmlns="http://www.w3.org/2000/svg" xmlns:xlink="http://www.w3.org/1999/xlink" width="500" zoomAndPan="magnify" viewBox="0 0 375 374.999991" height="500" preserveAspectRatio="xMidYMid meet" version="1.0"><defs><clipPath id="5e798bdebf"><path d="M 62.652344 62.644531 L 312.347656 62.644531 L 312.347656 312.34375 L 62.652344 312.34375 Z M 62.652344 62.644531 " clip-rule="nonzero"/></clipPath><clipPath id="9727cf2b3c"><path d="M 62.652344 187.492188 C 62.652344 256.445312 118.546875 312.34375 187.5 312.34375 C 256.453125 312.34375 312.347656 256.445312 312.347656 187.492188 C 312.347656 118.539062 256.453125 62.644531 187.5 62.644531 C 118.546875 62.644531 62.652344 118.539062 62.652344 187.492188 Z M 62.652344 187.492188 " clip-rule="nonzero"/></clipPath><linearGradient x1="0.0000036928" gradientTransform="matrix(0, -0.975387, 0.975387, 0, 62.650497, 312.341883)" y1="0.0000036928" x2="255.999993" gradientUnits="userSpaceOnUse" y2="255.999993" id="c9c7c20dec"><stop stop-opacity="1" stop-color="rgb(100%, 19.198608%, 19.198608%)" offset="0"/><stop stop-opacity="1" stop-color="rgb(100%, 19.639587%, 19.326782%)" offset="0.00390625"/><stop stop-opacity="1" stop-color="rgb(100%, 20.082092%, 19.456482%)" offset="0.0078125"/><stop stop-opacity="1" stop-color="rgb(100%, 20.524597%, 19.584656%)" offset="0.0117188"/><stop stop-opacity="1" stop-color="rgb(100%, 20.967102%, 19.714355%)" offset="0.015625"/><stop stop-opacity="1" stop-color="rgb(100%, 21.408081%, 19.842529%)" offset="0.0195312"/><stop stop-opacity="1" stop-color="rgb(100%, 21.850586%, 19.972229%)" offset="0.0234375"/><stop stop-opacity="1" stop-color="rgb(100%, 22.291565%, 20.100403%)" offset="0.0273438"/><stop stop-opacity="1" stop-color="rgb(100%, 22.73407%, 20.230103%)" offset="0.03125"/><stop stop-opacity="1" stop-color="rgb(100%, 23.175049%, 20.358276%)" offset="0.0351562"/><stop stop-opacity="1" stop-color="rgb(100%, 23.617554%, 20.487976%)" offset="0.0390625"/><stop stop-opacity="1" stop-color="rgb(100%, 24.058533%, 20.61615%)" offset="0.0429688"/><stop stop-opacity="1" stop-color="rgb(100%, 24.501038%, 20.74585%)" offset="0.046875"/><stop stop-opacity="1" stop-color="rgb(100%, 24.942017%, 20.874023%)" offset="0.0507812"/><stop stop-opacity="1" stop-color="rgb(100%, 25.384521%, 21.003723%)" offset="0.0546875"/><stop stop-opacity="1" stop-color="rgb(100%, 25.8255%, 21.131897%)" offset="0.0585938"/><stop stop-opacity="1" stop-color="rgb(100%, 26.268005%, 21.261597%)" offset="0.0625"/><stop stop-opacity="1" stop-color="rgb(100%, 26.708984%, 21.389771%)" offset="0.0664062"/><stop stop-opacity="1" stop-color="rgb(100%, 27.151489%, 21.51947%)" offset="0.0703125"/><stop stop-opacity="1" stop-color="rgb(100%, 27.592468%, 21.647644%)" offset="0.0742188"/><stop stop-opacity="1" stop-color="rgb(100%, 28.034973%, 21.777344%)" offset="0.078125"/><stop stop-opacity="1" stop-color="rgb(100%, 28.475952%, 21.905518%)" offset="0.0820312"/><stop stop-opacity="1" stop-color="rgb(100%, 28.918457%, 22.035217%)" offset="0.0859375"/><stop stop-opacity="1" stop-color="rgb(100%, 29.359436%, 22.163391%)" offset="0.0898438"/><stop stop-opacity="1" stop-color="rgb(100%, 29.801941%, 22.293091%)" offset="0.09375"/><stop stop-opacity="1" stop-color="rgb(100%, 30.24292%, 22.421265%)" offset="0.0976562"/><stop stop-opacity="1" stop-color="rgb(100%, 30.685425%, 22.550964%)" offset="0.101562"/><stop stop-opacity="1" stop-color="rgb(100%, 31.126404%, 22.679138%)" offset="0.105469"/><stop stop-opacity="1" stop-color="rgb(100%, 31.568909%, 22.808838%)" offset="0.109375"/><stop stop-opacity="1" stop-color="rgb(100%, 32.009888%, 22.937012%)" offset="0.113281"/><stop stop-opacity="1" stop-color="rgb(100%, 32.452393%, 23.066711%)" offset="0.117188"/><stop stop-opacity="1" stop-color="rgb(100%, 32.894897%, 23.194885%)" offset="0.121094"/><stop stop-opacity="1" stop-color="rgb(100%, 33.337402%, 23.324585%)" offset="0.125"/><stop stop-opacity="1" stop-color="rgb(100%, 33.778381%, 23.452759%)" offset="0.128906"/><stop stop-opacity="1" stop-color="rgb(100%, 34.220886%, 23.582458%)" offset="0.132813"/><stop stop-opacity="1" stop-color="rgb(100%, 34.661865%, 23.710632%)" offset="0.136719"/><stop stop-opacity="1" stop-color="rgb(100%, 35.10437%, 23.840332%)" offset="0.140625"/><stop stop-opacity="1" stop-color="rgb(100%, 35.545349%, 23.968506%)" offset="0.144531"/><stop stop-opacity="1" stop-color="rgb(100%, 35.987854%, 24.098206%)" offset="0.148438"/><stop stop-opacity="1" stop-color="rgb(100%, 36.428833%, 24.226379%)" offset="0.152344"/><stop stop-opacity="1" stop-color="rgb(100%, 36.871338%, 24.356079%)" offset="0.15625"/><stop stop-opacity="1" stop-color="rgb(100%, 37.312317%, 24.484253%)" offset="0.160156"/><stop stop-opacity="1" stop-color="rgb(100%, 37.754822%, 24.613953%)" offset="0.164063"/><stop stop-opacity="1" stop-color="rgb(100%, 38.195801%, 24.742126%)" offset="0.167969"/><stop stop-opacity="1" stop-color="rgb(100%, 38.638306%, 24.871826%)" offset="0.171875"/><stop stop-opacity="1" stop-color="rgb(100%, 39.079285%, 25%)" offset="0.175781"/><stop stop-opacity="1" stop-color="rgb(100%, 39.52179%, 25.128174%)" offset="0.179688"/><stop stop-opacity="1" stop-color="rgb(100%, 39.962769%, 25.256348%)" offset="0.183594"/><stop stop-opacity="1" stop-color="rgb(100%, 40.405273%, 25.386047%)" offset="0.1875"/><stop stop-opacity="1" stop-color="rgb(100%, 40.846252%, 25.514221%)" offset="0.191406"/><stop stop-opacity="1" stop-color="rgb(100%, 41.288757%, 25.643921%)" offset="0.195312"/><stop stop-opacity="1" stop-color="rgb(100%, 41.729736%, 25.772095%)" offset="0.199219"/><stop stop-opacity="1" stop-color="rgb(100%, 42.172241%, 25.901794%)" offset="0.203125"/><stop stop-opacity="1" stop-color="rgb(100%, 42.61322%, 26.029968%)" offset="0.207031"/><stop stop-opacity="1" stop-color="rgb(100%, 43.055725%, 26.159668%)" offset="0.210938"/><stop stop-opacity="1" stop-color="rgb(100%, 43.496704%, 26.287842%)" offset="0.214844"/><stop stop-opacity="1" stop-color="rgb(100%, 43.939209%, 26.417542%)" offset="0.21875"/><stop stop-opacity="1" stop-color="rgb(100%, 44.381714%, 26.545715%)" offset="0.222656"/><stop stop-opacity="1" stop-color="rgb(100%, 44.824219%, 26.675415%)" offset="0.226562"/><stop stop-opacity="1" stop-color="rgb(100%, 45.265198%, 26.803589%)" offset="0.230469"/><stop stop-opacity="1" stop-color="rgb(100%, 45.707703%, 26.933289%)" offset="0.234375"/><stop stop-opacity="1" stop-color="rgb(100%, 46.148682%, 27.061462%)" offset="0.238281"/><stop stop-opacity="1" stop-color="rgb(100%, 46.591187%, 27.191162%)" offset="0.242188"/><stop stop-opacity="1" stop-color="rgb(100%, 47.032166%, 27.319336%)" offset="0.246094"/><stop stop-opacity="1" stop-color="rgb(100%, 47.47467%, 27.449036%)" offset="0.25"/><stop stop-opacity="1" stop-color="rgb(100%, 47.915649%, 27.577209%)" offset="0.253906"/><stop stop-opacity="1" stop-color="rgb(100%, 48.358154%, 27.706909%)" offset="0.257812"/><stop stop-opacity="1" stop-color="rgb(100%, 48.799133%, 27.835083%)" offset="0.261719"/><stop stop-opacity="1" stop-color="rgb(100%, 49.241638%, 27.964783%)" offset="0.265625"/><stop stop-opacity="1" stop-color="rgb(100%, 49.682617%, 28.092957%)" offset="0.269531"/><stop stop-opacity="1" stop-color="rgb(100%, 50.125122%, 28.222656%)" offset="0.273438"/><stop stop-opacity="1" stop-color="rgb(100%, 50.566101%, 28.35083%)" offset="0.277344"/><stop stop-opacity="1" stop-color="rgb(100%, 51.008606%, 28.48053%)" offset="0.28125"/><stop stop-opacity="1" stop-color="rgb(100%, 51.449585%, 28.608704%)" offset="0.285156"/><stop stop-opacity="1" stop-color="rgb(100%, 51.89209%, 28.738403%)" offset="0.289062"/><stop stop-opacity="1" stop-color="rgb(100%, 52.333069%, 28.866577%)" offset="0.292969"/><stop stop-opacity="1" stop-color="rgb(100%, 52.775574%, 28.996277%)" offset="0.296875"/><stop stop-opacity="1" stop-color="rgb(100%, 53.216553%, 29.124451%)" offset="0.300781"/><stop stop-opacity="1" stop-color="rgb(100%, 53.659058%, 29.25415%)" offset="0.304688"/><stop stop-opacity="1" stop-color="rgb(100%, 54.100037%, 29.382324%)" offset="0.308594"/><stop stop-opacity="1" stop-color="rgb(100%, 54.542542%, 29.512024%)" offset="0.3125"/><stop stop-opacity="1" stop-color="rgb(100%, 54.983521%, 29.640198%)" offset="0.316406"/><stop stop-opacity="1" stop-color="rgb(100%, 55.426025%, 29.769897%)" offset="0.320312"/><stop stop-opacity="1" stop-color="rgb(100%, 55.867004%, 29.898071%)" offset="0.324219"/><stop stop-opacity="1" stop-color="rgb(100%, 56.309509%, 30.027771%)" offset="0.328125"/><stop stop-opacity="1" stop-color="rgb(100%, 56.604004%, 30.11322%)" offset="0.332031"/><stop stop-opacity="1" stop-color="rgb(100%, 56.898499%, 30.198669%)" offset="0.335938"/><stop stop-opacity="1" stop-color="rgb(100%, 56.898499%, 30.198669%)" offset="0.34375"/><stop stop-opacity="1" stop-color="rgb(100%, 56.898499%, 30.198669%)" offset="0.375"/><stop stop-opacity="1" stop-color="rgb(100%, 56.898499%, 30.198669%)" offset="0.5"/><stop stop-opacity="1" stop-color="rgb(100%, 56.898499%, 30.198669%)" offset="0.5"/><stop stop-opacity="1" stop-color="rgb(100%, 56.898499%, 30.198669%)" offset="0.5"/><stop stop-opacity="1" stop-color="rgb(100%, 56.898499%, 30.198669%)" offset="1"/></linearGradient><clipPath id="fd82f4786a"><path d="M 58.5 58.5 L 316.5 58.5 L 316.5 316.5 L 58.5 316.5 Z M 58.5 58.5 " clip-rule="nonzero"/></clipPath><clipPath id="add12d35ba"><path d="M 187.5 316.5 C 153.058594 316.5 120.628906 303.09375 96.292969 278.707031 C 71.90625 254.371094 58.5 221.941406 58.5 187.5 C 58.5 153.058594 71.90625 120.628906 96.292969 96.292969 C 120.628906 71.90625 153.058594 58.5 187.5 58.5 C 221.941406 58.5 254.371094 71.90625 278.707031 96.292969 C 303.09375 120.679688 316.5 153.058594 316.5 187.5 C 316.5 221.941406 303.09375 254.371094 278.707031 278.707031 C 254.371094 303.09375 221.941406 316.5 187.5 316.5 Z M 187.5 66.234375 C 155.121094 66.234375 124.648438 78.867188 101.757812 101.757812 C 78.867188 124.648438 66.234375 155.121094 66.234375 187.5 C 66.234375 219.878906 78.867188 250.351562 101.757812 273.242188 C 124.648438 296.132812 155.121094 308.765625 187.5 308.765625 C 219.878906 308.765625 250.351562 296.132812 273.242188 273.242188 C 296.132812 250.351562 308.765625 219.878906 308.765625 187.5 C 308.765625 155.121094 296.132812 124.648438 273.242188 101.757812 C 250.351562 78.867188 219.878906 66.234375 187.5 66.234375 Z M 187.5 66.234375 " clip-rule="nonzero"/></clipPath><clipPath id="12d54e7ebb"><path d="M 99 162 L 275.855469 162 L 275.855469 275.855469 L 99 275.855469 Z M 99 162 " clip-rule="nonzero"/></clipPath></defs><rect x="-37.5" width="450" fill="#ffffff" y="-37.499999" height="449.999989" fill-opacity="1"/><rect x="-37.5" width="450" fill="#ffffff" y="-37.499999" height="449.999989" fill-opacity="1"/><g clip-path="url(#5e798bdebf)"><g clip-path="url(#9727cf2b3c)"><path fill="url(#c9c7c20dec)" d="M 62.652344 312.34375 L 312.347656 312.34375 L 312.347656 62.644531 L 62.652344 62.644531 Z M 62.652344 312.34375 " fill-rule="nonzero"/></g></g><g clip-path="url(#fd82f4786a)"><g clip-path="url(#add12d35ba)"><path fill="#100f0d" d="M 58.5 58.5 L 316.5 58.5 L 316.5 316.5 L 58.5 316.5 Z M 58.5 58.5 " fill-opacity="1" fill-rule="nonzero"/></g></g><path fill="#000000" d="M 136.589844 234.332031 C 135.625 233.226562 133.828125 233.089844 132.726562 234.195312 C 131.621094 235.160156 131.484375 236.953125 132.589844 238.058594 C 146.660156 253.230469 166.664062 262.0625 187.355469 262.0625 C 188.875 262.0625 190.117188 260.820312 190.117188 259.300781 C 190.117188 257.785156 188.875 256.542969 187.355469 256.542969 C 168.179688 256.542969 149.695312 248.402344 136.589844 234.332031 Z M 136.589844 234.332031 " fill-opacity="1" fill-rule="nonzero"/><path fill="#000000" d="M 190.117188 175.148438 C 190.117188 173.628906 188.875 172.390625 187.355469 172.390625 C 145.554688 172.390625 119.480469 180.941406 112.171875 186.738281 C 110.929688 187.703125 110.789062 189.359375 111.757812 190.597656 C 112.308594 191.289062 113.136719 191.703125 113.964844 191.703125 C 114.515625 191.703125 115.207031 191.566406 115.621094 191.152344 C 119.894531 187.703125 142.382812 177.90625 187.355469 177.90625 C 188.875 177.90625 190.117188 176.664062 190.117188 175.148438 Z M 190.117188 175.148438 " fill-opacity="1" fill-rule="nonzero"/><path fill="#000000" d="M 187.355469 205.5 C 229.160156 205.5 255.234375 196.945312 262.542969 191.152344 C 263.785156 190.183594 263.925781 188.53125 262.957031 187.289062 C 261.992188 186.046875 260.335938 185.910156 259.09375 186.875 C 254.820312 190.324219 232.332031 200.117188 187.355469 200.117188 C 185.839844 200.117188 184.597656 201.359375 184.597656 202.878906 C 184.597656 204.257812 185.839844 205.5 187.355469 205.5 Z M 187.355469 205.5 " fill-opacity="1" fill-rule="nonzero"/><path fill="#000000" d="M 161.421875 189.773438 C 157.144531 191.980469 153.144531 189.359375 153.003906 189.21875 C 151.765625 188.390625 149.96875 188.667969 149.144531 189.910156 C 148.316406 191.152344 148.589844 192.945312 149.832031 193.773438 C 149.96875 193.910156 153.28125 196.117188 157.835938 196.117188 C 159.628906 196.117188 161.695312 195.703125 163.90625 194.738281 C 165.285156 194.046875 165.835938 192.394531 165.144531 191.011719 C 164.457031 189.632812 162.800781 189.082031 161.421875 189.773438 Z M 161.421875 189.773438 " fill-opacity="1" fill-rule="nonzero"/><path fill="#000000" d="M 204.1875 182.183594 C 202.671875 182.320312 201.566406 183.839844 201.84375 185.355469 C 201.980469 186.875 203.5 187.976562 205.015625 187.703125 C 205.015625 187.703125 210.394531 187.148438 211.363281 189.773438 C 211.777344 190.875 212.878906 191.566406 213.984375 191.566406 C 214.257812 191.566406 214.535156 191.566406 214.949219 191.425781 C 216.328125 190.875 217.15625 189.359375 216.605469 187.976562 C 214.535156 182.460938 207.914062 181.769531 204.1875 182.183594 Z M 204.1875 182.183594 " fill-opacity="1" fill-rule="nonzero"/><path fill="#000000" d="M 242.953125 133.761719 C 240.472656 130.035156 236.609375 127.550781 232.054688 127 C 227.777344 126.449219 223.503906 127.691406 220.328125 130.3125 C 217.15625 132.933594 215.226562 136.519531 214.949219 140.519531 L 212.328125 173.628906 C 212.050781 175.148438 213.15625 176.527344 214.671875 176.527344 C 216.191406 176.664062 217.570312 175.5625 217.707031 174.042969 L 220.328125 140.933594 C 220.46875 138.453125 221.707031 136.242188 223.777344 134.589844 C 225.847656 132.933594 228.605469 132.105469 231.367188 132.519531 C 234.261719 132.933594 236.746094 134.449219 238.265625 136.796875 C 239.78125 139.003906 240.058594 141.625 239.367188 144.246094 L 230.125 175.699219 C 229.710938 177.21875 230.539062 178.734375 232.054688 179.148438 C 232.332031 179.285156 232.609375 179.285156 232.882812 179.285156 C 234.125 179.285156 235.230469 178.460938 235.503906 177.355469 L 244.746094 145.761719 C 245.851562 141.625 245.300781 137.347656 242.953125 133.761719 Z M 242.953125 133.761719 " fill-opacity="1" fill-rule="nonzero"/><path fill="#000000" d="M 229.710938 147.554688 C 231.089844 147.554688 232.195312 146.589844 232.46875 145.210938 L 232.882812 142.453125 C 233.160156 140.933594 232.054688 139.554688 230.539062 139.277344 C 229.019531 139.003906 227.640625 140.105469 227.363281 141.625 L 226.953125 144.382812 C 226.675781 145.902344 227.777344 147.28125 229.296875 147.554688 C 229.433594 147.554688 229.574219 147.554688 229.710938 147.554688 Z M 229.710938 147.554688 " fill-opacity="1" fill-rule="nonzero"/><path fill="#000000" d="M 165.421875 99.410156 C 164.042969 98.855469 162.386719 99.683594 161.972656 101.066406 C 161.695312 101.753906 156.453125 117.480469 167.351562 125.34375 C 176.320312 131.828125 178.804688 135.417969 175.90625 145.347656 C 175.492188 146.867188 176.320312 148.382812 177.839844 148.796875 C 178.113281 148.9375 178.390625 148.9375 178.527344 148.9375 C 179.769531 148.9375 180.875 148.109375 181.148438 146.867188 C 184.875 133.898438 180.597656 128.105469 170.527344 120.792969 C 162.9375 115.414062 167.078125 102.996094 167.078125 102.859375 C 167.628906 101.476562 166.941406 99.960938 165.421875 99.410156 Z M 165.421875 99.410156 " fill-opacity="1" fill-rule="nonzero"/><path fill="#000000" d="M 158.660156 128.378906 C 157.144531 127.964844 155.628906 128.933594 155.351562 130.449219 C 155.214844 131 152.453125 143.417969 162.109375 150.175781 C 168.320312 154.59375 165.144531 162.871094 165.007812 163.144531 C 164.457031 164.523438 165.144531 166.179688 166.527344 166.734375 C 166.800781 166.871094 167.214844 166.871094 167.492188 166.871094 C 168.59375 166.871094 169.5625 166.179688 170.113281 165.078125 C 171.90625 160.664062 173.148438 151.003906 165.144531 145.488281 C 158.660156 140.933594 160.59375 131.96875 160.730469 131.554688 C 161.144531 130.171875 160.179688 128.65625 158.660156 128.378906 Z M 158.660156 128.378906 " fill-opacity="1" fill-rule="nonzero"/><path fill="#000000" d="M 176.734375 161.488281 C 176.457031 163.699219 175.90625 165.628906 175.355469 167.007812 C 179.21875 167.007812 183.21875 166.871094 187.355469 166.871094 C 194.253906 166.871094 200.878906 167.144531 207.222656 167.558594 L 207.636719 162.042969 C 200.878906 161.628906 194.117188 161.351562 187.355469 161.351562 C 183.769531 161.351562 180.320312 161.488281 176.734375 161.488281 Z M 176.734375 161.488281 " fill-opacity="1" fill-rule="nonzero"/><g clip-path="url(#12d54e7ebb)"><path fill="#000000" d="M 275.238281 186.046875 C 272.890625 177.90625 260.75 171.699219 244.058594 167.421875 L 242.539062 172.664062 C 259.921875 176.941406 270.132812 183.148438 270.132812 188.804688 C 270.132812 199.289062 236.195312 210.878906 187.355469 210.878906 C 138.519531 210.878906 104.582031 199.429688 104.582031 188.945312 C 104.582031 180.527344 126.519531 171.421875 160.457031 168.113281 C 160.316406 167.835938 160.179688 167.558594 160.042969 167.285156 C 159.351562 165.765625 159.214844 164.25 159.488281 162.59375 C 129.140625 165.628906 102.925781 173.628906 99.476562 186.046875 C 99.203125 186.597656 99.0625 187.011719 99.0625 187.5625 C 99.0625 187.839844 99.0625 188.253906 99.0625 188.53125 C 99.0625 188.667969 99.0625 188.804688 99.0625 188.945312 C 99.0625 189.21875 99.0625 189.359375 99.0625 189.632812 C 100.167969 237.367188 139.347656 275.855469 187.355469 275.855469 C 235.367188 275.855469 274.546875 237.367188 275.648438 189.632812 C 275.648438 189.359375 275.648438 189.21875 275.648438 188.945312 C 275.648438 188.804688 275.648438 188.667969 275.648438 188.667969 C 275.648438 188.253906 275.648438 187.976562 275.648438 187.5625 C 275.648438 187.011719 275.511719 186.460938 275.238281 186.046875 Z M 187.355469 270.339844 C 145.832031 270.339844 111.480469 239.710938 105.546875 199.84375 C 119.480469 210.742188 154.246094 216.535156 187.355469 216.535156 C 220.46875 216.535156 255.234375 210.742188 269.167969 199.84375 C 263.234375 239.710938 228.882812 270.339844 187.355469 270.339844 Z M 187.355469 270.339844 " fill-opacity="1" fill-rule="nonzero"/></g></svg>