<svg xmlns="http://www.w3.org/2000/svg" xmlns:xlink="http://www.w3.org/1999/xlink" width="500" zoomAndPan="magnify" viewBox="0 0 375 374.999991" height="500" preserveAspectRatio="xMidYMid meet" version="1.0"><defs><clipPath id="e3751f9f3a"><path d="M 125.144531 182 L 248.894531 182 L 248.894531 261.75 L 125.144531 261.75 Z M 125.144531 182 " clip-rule="nonzero"/></clipPath><clipPath id="43c36f7f06"><path d="M 154 112.5 L 220 112.5 L 220 179 L 154 179 Z M 154 112.5 " clip-rule="nonzero"/></clipPath></defs><g clip-path="url(#e3751f9f3a)"><path fill="#000000" d="M 211.386719 182.972656 C 221.828125 183.410156 231.140625 187.953125 237.925781 195.03125 C 244.714844 202.109375 248.894531 211.722656 248.894531 222.292969 L 248.894531 259.078125 C 248.894531 260.566406 247.675781 261.699219 246.28125 261.699219 L 127.753906 261.699219 C 126.273438 261.699219 125.144531 260.566406 125.144531 259.078125 L 125.144531 222.292969 C 125.144531 211.722656 129.320312 202.109375 136.109375 195.03125 C 142.894531 187.953125 152.292969 183.324219 162.824219 182.972656 L 162.824219 182.886719 C 163.695312 182.886719 164.566406 183.324219 165 184.023438 C 167.609375 187.429688 170.917969 190.226562 174.660156 192.148438 C 178.402344 193.984375 182.578125 195.03125 187.019531 195.03125 C 191.457031 195.03125 195.632812 193.984375 199.289062 192.148438 C 203.117188 190.226562 206.425781 187.429688 209.035156 184.023438 L 211.125 185.507812 L 209.035156 183.9375 C 209.558594 183.238281 210.515625 182.800781 211.386719 182.972656 Z M 234.183594 198.703125 C 228.527344 192.761719 220.871094 188.917969 212.34375 188.21875 C 209.382812 191.800781 205.726562 194.769531 201.636719 196.867188 C 197.199219 199.050781 192.238281 200.273438 187.019531 200.273438 C 181.710938 200.273438 176.75 199.050781 172.398438 196.867188 C 168.21875 194.769531 164.566406 191.800781 161.691406 188.21875 C 153.164062 188.917969 145.417969 192.761719 139.851562 198.703125 C 133.933594 204.820312 130.363281 213.121094 130.363281 222.292969 L 130.363281 256.457031 L 243.671875 256.457031 L 243.671875 222.292969 C 243.671875 213.121094 240.015625 204.820312 234.183594 198.703125 Z M 234.183594 198.703125 " fill-opacity="1" fill-rule="nonzero"/></g><g clip-path="url(#43c36f7f06)"><path fill="#000000" d="M 187.019531 112.550781 C 195.980469 112.550781 204.160156 116.21875 210.078125 122.160156 C 215.996094 128.101562 219.652344 136.316406 219.652344 145.402344 C 219.652344 154.488281 215.996094 162.617188 210.078125 168.558594 C 204.160156 174.5 195.980469 178.167969 187.019531 178.167969 C 177.96875 178.167969 169.785156 174.5 163.867188 168.558594 C 157.953125 162.617188 154.296875 154.488281 154.296875 145.402344 C 154.296875 136.316406 157.953125 128.101562 163.867188 122.160156 C 169.785156 116.21875 177.96875 112.550781 187.019531 112.550781 Z M 206.425781 125.917969 C 201.464844 120.9375 194.589844 117.792969 187.019531 117.792969 C 179.445312 117.792969 172.570312 120.9375 167.609375 125.917969 C 162.5625 130.898438 159.519531 137.800781 159.519531 145.402344 C 159.519531 153.003906 162.5625 159.90625 167.609375 164.886719 C 172.570312 169.867188 179.445312 172.925781 187.019531 172.925781 C 194.589844 172.925781 201.464844 169.867188 206.425781 164.886719 C 211.386719 159.90625 214.429688 153.003906 214.429688 145.402344 C 214.429688 137.800781 211.386719 130.898438 206.425781 125.917969 Z M 206.425781 125.917969 " fill-opacity="1" fill-rule="nonzero"/></g></svg>