<svg xmlns="http://www.w3.org/2000/svg" xmlns:xlink="http://www.w3.org/1999/xlink" width="500" zoomAndPan="magnify" viewBox="0 0 375 374.999991" height="500" preserveAspectRatio="xMidYMid meet" version="1.0"><defs><clipPath id="f7544013f5"><path d="M 112.5 112.5 L 262.5 112.5 L 262.5 262.5 L 112.5 262.5 Z M 112.5 112.5 " clip-rule="nonzero"/></clipPath></defs><path fill="#000000" d="M 187.5 157.3125 C 170.816406 157.3125 157.246094 170.882812 157.246094 187.566406 C 157.246094 204.246094 170.816406 217.816406 187.5 217.816406 C 204.179688 217.816406 217.753906 204.246094 217.753906 187.566406 C 217.753906 170.882812 204.179688 157.3125 187.5 157.3125 Z M 187.5 210.507812 C 174.847656 210.507812 164.558594 200.214844 164.558594 187.566406 C 164.558594 174.914062 174.847656 164.621094 187.5 164.621094 C 200.152344 164.621094 210.441406 174.914062 210.441406 187.566406 C 210.441406 200.214844 200.152344 210.507812 187.5 210.507812 Z M 187.5 210.507812 " fill-opacity="1" fill-rule="nonzero"/><g clip-path="url(#f7544013f5)"><path fill="#000000" d="M 258.847656 168.867188 L 242.015625 168.867188 C 241.230469 166.566406 240.292969 164.316406 239.21875 162.132812 L 251.128906 150.222656 C 252.554688 148.796875 252.554688 146.484375 251.128906 145.054688 L 229.945312 123.875 C 228.515625 122.445312 226.203125 122.445312 224.777344 123.875 L 212.84375 135.804688 C 210.671875 134.738281 208.425781 133.808594 206.132812 133.027344 L 206.132812 116.152344 C 206.132812 114.132812 204.496094 112.496094 202.476562 112.496094 L 172.523438 112.496094 C 170.503906 112.496094 168.867188 114.132812 168.867188 116.152344 L 168.867188 133.027344 C 166.574219 133.808594 164.328125 134.738281 162.15625 135.804688 L 150.226562 123.875 C 148.796875 122.445312 146.484375 122.445312 145.054688 123.875 L 123.875 145.054688 C 122.445312 146.484375 122.445312 148.796875 123.875 150.222656 L 135.78125 162.132812 C 134.707031 164.316406 133.769531 166.566406 132.984375 168.867188 L 116.152344 168.867188 C 114.132812 168.867188 112.496094 170.503906 112.496094 172.523438 L 112.496094 202.476562 C 112.496094 204.496094 114.132812 206.132812 116.152344 206.132812 L 132.941406 206.132812 C 133.726562 208.449219 134.660156 210.714844 135.738281 212.910156 L 123.871094 224.777344 C 122.445312 226.203125 122.445312 228.515625 123.871094 229.945312 L 145.054688 251.128906 C 145.742188 251.8125 146.671875 252.199219 147.640625 252.199219 C 148.609375 252.199219 149.539062 251.8125 150.222656 251.128906 L 162.066406 239.285156 C 164.269531 240.367188 166.539062 241.308594 168.867188 242.105469 L 168.867188 258.847656 C 168.867188 260.867188 170.503906 262.503906 172.523438 262.503906 L 202.476562 262.503906 C 204.496094 262.503906 206.132812 260.867188 206.132812 258.847656 L 206.132812 242.105469 C 208.460938 241.308594 210.730469 240.367188 212.929688 239.285156 L 224.773438 251.128906 C 225.488281 251.839844 226.425781 252.199219 227.359375 252.199219 C 228.296875 252.199219 229.230469 251.839844 229.945312 251.128906 L 251.125 229.945312 C 251.8125 229.257812 252.199219 228.328125 252.199219 227.359375 C 252.199219 226.390625 251.8125 225.460938 251.125 224.777344 L 239.261719 212.910156 C 240.335938 210.714844 241.273438 208.449219 242.058594 206.132812 L 258.847656 206.132812 C 260.867188 206.132812 262.503906 204.496094 262.503906 202.480469 L 262.503906 172.523438 C 262.503906 170.503906 260.867188 168.867188 258.847656 168.867188 Z M 255.195312 198.824219 L 239.320312 198.824219 C 239.300781 198.824219 239.28125 198.824219 239.261719 198.824219 C 237.367188 198.84375 235.820312 200.304688 235.660156 202.160156 C 234.722656 205.265625 233.476562 208.285156 231.953125 211.148438 C 230.710938 212.585938 230.769531 214.757812 232.132812 216.121094 L 243.375 227.359375 L 227.359375 243.375 L 216.121094 232.132812 C 214.730469 230.746094 212.507812 230.710938 211.070312 232.023438 C 208.292969 233.5 205.363281 234.71875 202.34375 235.648438 C 200.386719 235.722656 198.824219 237.324219 198.824219 239.296875 L 198.824219 239.347656 C 198.824219 239.351562 198.824219 239.355469 198.824219 239.359375 L 198.824219 255.195312 L 176.175781 255.195312 L 176.175781 239.355469 C 176.175781 239.355469 176.175781 239.351562 176.175781 239.347656 L 176.175781 239.296875 C 176.175781 237.324219 174.613281 235.722656 172.65625 235.648438 C 169.636719 234.71875 166.707031 233.5 163.929688 232.023438 C 162.496094 230.710938 160.269531 230.746094 158.878906 232.132812 L 147.640625 243.375 L 131.625 227.359375 L 142.867188 216.121094 C 144.230469 214.757812 144.289062 212.585938 143.046875 211.148438 C 141.523438 208.28125 140.277344 205.265625 139.339844 202.160156 C 139.179688 200.300781 137.628906 198.839844 135.734375 198.824219 C 135.71875 198.824219 135.703125 198.824219 135.683594 198.824219 L 119.804688 198.824219 L 119.804688 176.175781 L 135.648438 176.175781 C 135.652344 176.175781 135.65625 176.175781 135.660156 176.175781 C 135.667969 176.175781 135.675781 176.175781 135.679688 176.175781 L 135.703125 176.175781 C 135.730469 176.175781 135.761719 176.171875 135.789062 176.171875 C 135.851562 176.167969 135.914062 176.167969 135.976562 176.164062 C 137.683594 176.035156 139.0625 174.734375 139.3125 173.066406 C 140.296875 169.773438 141.628906 166.578125 143.277344 163.554688 C 144.242188 162.175781 144.144531 160.277344 142.980469 159.003906 C 142.949219 158.96875 142.917969 158.933594 142.882812 158.898438 C 142.878906 158.890625 142.875 158.886719 142.867188 158.878906 L 131.628906 147.640625 L 147.640625 131.625 L 158.867188 142.851562 C 158.867188 142.851562 158.871094 142.855469 158.871094 142.859375 L 158.878906 142.867188 C 158.984375 142.96875 159.09375 143.0625 159.203125 143.152344 C 159.234375 143.175781 159.269531 143.199219 159.300781 143.222656 C 159.394531 143.289062 159.488281 143.351562 159.582031 143.410156 C 159.613281 143.429688 159.644531 143.449219 159.679688 143.46875 C 159.804688 143.539062 159.933594 143.601562 160.066406 143.65625 C 160.066406 143.65625 160.066406 143.660156 160.066406 143.660156 C 160.207031 143.714844 160.347656 143.761719 160.492188 143.800781 C 160.519531 143.8125 160.550781 143.816406 160.582031 143.824219 C 160.691406 143.851562 160.804688 143.875 160.917969 143.890625 C 160.957031 143.898438 161 143.90625 161.039062 143.910156 C 161.171875 143.925781 161.304688 143.933594 161.441406 143.9375 C 161.449219 143.9375 161.460938 143.9375 161.46875 143.9375 C 161.492188 143.9375 161.511719 143.933594 161.535156 143.933594 C 161.644531 143.929688 161.753906 143.925781 161.863281 143.914062 C 161.917969 143.90625 161.96875 143.898438 162.019531 143.890625 C 162.105469 143.875 162.191406 143.859375 162.277344 143.839844 C 162.328125 143.828125 162.378906 143.820312 162.425781 143.804688 C 162.535156 143.777344 162.644531 143.742188 162.75 143.699219 C 162.773438 143.691406 162.796875 143.6875 162.820312 143.675781 C 162.953125 143.625 163.082031 143.5625 163.210938 143.492188 C 163.21875 143.488281 163.226562 143.484375 163.234375 143.480469 C 166.484375 141.683594 169.949219 140.246094 173.535156 139.214844 C 173.542969 139.210938 173.550781 139.207031 173.558594 139.207031 C 173.640625 139.183594 173.71875 139.152344 173.796875 139.125 C 173.835938 139.109375 173.871094 139.097656 173.910156 139.082031 C 173.976562 139.054688 174.042969 139.023438 174.109375 138.992188 C 174.152344 138.96875 174.199219 138.949219 174.242188 138.925781 C 174.292969 138.898438 174.339844 138.871094 174.390625 138.839844 C 174.445312 138.808594 174.5 138.777344 174.554688 138.742188 C 174.585938 138.71875 174.617188 138.695312 174.648438 138.671875 C 174.714844 138.625 174.777344 138.578125 174.839844 138.527344 C 174.863281 138.507812 174.882812 138.488281 174.90625 138.46875 C 174.972656 138.410156 175.039062 138.355469 175.101562 138.292969 C 175.125 138.265625 175.148438 138.238281 175.175781 138.214844 C 175.230469 138.15625 175.285156 138.097656 175.335938 138.035156 C 175.371094 137.992188 175.40625 137.941406 175.441406 137.894531 C 175.476562 137.851562 175.511719 137.808594 175.542969 137.761719 C 175.589844 137.691406 175.628906 137.621094 175.671875 137.550781 C 175.6875 137.519531 175.707031 137.492188 175.722656 137.464844 C 175.765625 137.386719 175.804688 137.304688 175.839844 137.226562 C 175.851562 137.199219 175.867188 137.175781 175.878906 137.148438 C 175.910156 137.078125 175.9375 137 175.964844 136.925781 C 175.976562 136.886719 175.992188 136.851562 176.003906 136.816406 C 176.023438 136.753906 176.039062 136.691406 176.054688 136.628906 C 176.066406 136.574219 176.085938 136.519531 176.097656 136.464844 C 176.105469 136.417969 176.113281 136.371094 176.121094 136.324219 C 176.132812 136.25 176.148438 136.175781 176.15625 136.097656 C 176.160156 136.0625 176.160156 136.023438 176.164062 135.988281 C 176.167969 135.902344 176.175781 135.816406 176.175781 135.730469 C 176.175781 135.71875 176.175781 135.710938 176.175781 135.703125 L 176.175781 119.804688 L 198.824219 119.804688 L 198.824219 135.703125 C 198.824219 135.710938 198.824219 135.71875 198.824219 135.730469 C 198.824219 135.8125 198.832031 135.898438 198.835938 135.984375 C 198.839844 136.023438 198.839844 136.0625 198.84375 136.097656 C 198.851562 136.171875 198.867188 136.246094 198.878906 136.316406 C 198.886719 136.367188 198.894531 136.414062 198.902344 136.464844 C 198.914062 136.515625 198.929688 136.570312 198.945312 136.625 C 198.960938 136.6875 198.976562 136.753906 198.996094 136.816406 C 199.007812 136.851562 199.023438 136.882812 199.035156 136.917969 C 199.0625 136.996094 199.089844 137.074219 199.121094 137.148438 C 199.132812 137.171875 199.144531 137.195312 199.15625 137.21875 C 199.195312 137.300781 199.234375 137.386719 199.277344 137.464844 C 199.292969 137.492188 199.308594 137.519531 199.324219 137.546875 C 199.367188 137.617188 199.410156 137.691406 199.457031 137.761719 C 199.488281 137.804688 199.523438 137.847656 199.558594 137.894531 C 199.59375 137.941406 199.625 137.988281 199.664062 138.035156 C 199.714844 138.097656 199.773438 138.15625 199.828125 138.214844 C 199.851562 138.242188 199.875 138.265625 199.898438 138.292969 C 199.960938 138.355469 200.027344 138.414062 200.097656 138.472656 C 200.117188 138.488281 200.136719 138.507812 200.160156 138.527344 C 200.222656 138.578125 200.289062 138.625 200.351562 138.671875 C 200.382812 138.695312 200.414062 138.71875 200.445312 138.738281 C 200.5 138.777344 200.554688 138.808594 200.613281 138.839844 C 200.660156 138.871094 200.707031 138.898438 200.757812 138.925781 C 200.800781 138.949219 200.847656 138.96875 200.890625 138.992188 C 200.957031 139.023438 201.023438 139.054688 201.089844 139.082031 C 201.128906 139.097656 201.164062 139.109375 201.203125 139.125 C 201.28125 139.152344 201.359375 139.179688 201.4375 139.203125 C 201.449219 139.207031 201.457031 139.210938 201.464844 139.214844 C 205.046875 140.246094 208.511719 141.679688 211.765625 143.480469 C 211.773438 143.484375 211.78125 143.488281 211.789062 143.492188 C 211.917969 143.5625 212.046875 143.625 212.183594 143.675781 C 212.203125 143.683594 212.226562 143.691406 212.25 143.699219 C 212.355469 143.738281 212.464844 143.777344 212.574219 143.804688 C 212.621094 143.820312 212.671875 143.828125 212.71875 143.839844 C 212.808594 143.859375 212.894531 143.878906 212.984375 143.890625 C 213.035156 143.898438 213.085938 143.90625 213.136719 143.914062 C 213.25 143.925781 213.363281 143.933594 213.476562 143.933594 C 213.496094 143.933594 213.511719 143.9375 213.53125 143.9375 C 213.539062 143.9375 213.546875 143.9375 213.554688 143.9375 C 213.691406 143.933594 213.828125 143.925781 213.964844 143.910156 C 214 143.902344 214.039062 143.898438 214.078125 143.890625 C 214.195312 143.875 214.308594 143.851562 214.421875 143.824219 C 214.449219 143.816406 214.480469 143.808594 214.507812 143.800781 C 214.789062 143.726562 215.0625 143.613281 215.324219 143.464844 C 215.355469 143.449219 215.386719 143.429688 215.417969 143.410156 C 215.511719 143.351562 215.605469 143.289062 215.699219 143.222656 C 215.730469 143.199219 215.765625 143.175781 215.796875 143.152344 C 215.90625 143.0625 216.015625 142.96875 216.121094 142.867188 L 216.128906 142.855469 C 216.132812 142.855469 216.132812 142.851562 216.132812 142.851562 L 227.359375 131.625 L 243.375 147.640625 L 232.132812 158.878906 C 232.128906 158.886719 232.125 158.890625 232.117188 158.898438 C 232.082031 158.933594 232.050781 158.972656 232.015625 159.007812 C 230.855469 160.285156 230.757812 162.175781 231.722656 163.554688 C 233.371094 166.578125 234.703125 169.773438 235.6875 173.066406 C 235.9375 174.738281 237.316406 176.039062 239.027344 176.164062 C 239.074219 176.167969 239.125 176.167969 239.171875 176.171875 C 239.214844 176.171875 239.253906 176.175781 239.296875 176.175781 L 239.328125 176.175781 C 239.332031 176.175781 239.335938 176.175781 239.339844 176.175781 C 239.34375 176.175781 239.34375 176.175781 239.347656 176.175781 L 255.195312 176.175781 Z M 255.195312 198.824219 " fill-opacity="1" fill-rule="nonzero"/></g></svg>