<svg xmlns="http://www.w3.org/2000/svg" xmlns:xlink="http://www.w3.org/1999/xlink" width="500" zoomAndPan="magnify" viewBox="0 0 375 374.999991" height="500" preserveAspectRatio="xMidYMid meet" version="1.0"><defs><clipPath id="ad276be496"><path d="M 62.652344 62.644531 L 312.347656 62.644531 L 312.347656 312.34375 L 62.652344 312.34375 Z M 62.652344 62.644531 " clip-rule="nonzero"/></clipPath><clipPath id="d287825fec"><path d="M 62.652344 187.492188 C 62.652344 256.445312 118.546875 312.34375 187.5 312.34375 C 256.453125 312.34375 312.347656 256.445312 312.347656 187.492188 C 312.347656 118.539062 256.453125 62.644531 187.5 62.644531 C 118.546875 62.644531 62.652344 118.539062 62.652344 187.492188 Z M 62.652344 187.492188 " clip-rule="nonzero"/></clipPath><linearGradient x1="0.0000036928" gradientTransform="matrix(0, -0.975387, 0.975387, 0, 62.650497, 312.341883)" y1="0.0000036928" x2="255.999993" gradientUnits="userSpaceOnUse" y2="255.999993" id="5497764518"><stop stop-opacity="1" stop-color="rgb(0%, 14.898682%, 34.498596%)" offset="0"/><stop stop-opacity="1" stop-color="rgb(0.309753%, 15.005493%, 34.716797%)" offset="0.00390625"/><stop stop-opacity="1" stop-color="rgb(0.621033%, 15.113831%, 34.934998%)" offset="0.0078125"/><stop stop-opacity="1" stop-color="rgb(0.932312%, 15.220642%, 35.151672%)" offset="0.0117188"/><stop stop-opacity="1" stop-color="rgb(1.243591%, 15.328979%, 35.369873%)" offset="0.015625"/><stop stop-opacity="1" stop-color="rgb(1.553345%, 15.435791%, 35.586548%)" offset="0.0195312"/><stop stop-opacity="1" stop-color="rgb(1.864624%, 15.544128%, 35.804749%)" offset="0.0234375"/><stop stop-opacity="1" stop-color="rgb(2.175903%, 15.65094%, 36.021423%)" offset="0.0273438"/><stop stop-opacity="1" stop-color="rgb(2.487183%, 15.759277%, 36.239624%)" offset="0.03125"/><stop stop-opacity="1" stop-color="rgb(2.796936%, 15.866089%, 36.456299%)" offset="0.0351562"/><stop stop-opacity="1" stop-color="rgb(3.108215%, 15.9729%, 36.6745%)" offset="0.0390625"/><stop stop-opacity="1" stop-color="rgb(3.419495%, 16.079712%, 36.8927%)" offset="0.0429688"/><stop stop-opacity="1" stop-color="rgb(3.730774%, 16.188049%, 37.110901%)" offset="0.046875"/><stop stop-opacity="1" stop-color="rgb(4.040527%, 16.294861%, 37.327576%)" offset="0.0507812"/><stop stop-opacity="1" stop-color="rgb(4.351807%, 16.403198%, 37.545776%)" offset="0.0546875"/><stop stop-opacity="1" stop-color="rgb(4.663086%, 16.51001%, 37.762451%)" offset="0.0585938"/><stop stop-opacity="1" stop-color="rgb(4.974365%, 16.618347%, 37.980652%)" offset="0.0625"/><stop stop-opacity="1" stop-color="rgb(5.284119%, 16.725159%, 38.197327%)" offset="0.0664062"/><stop stop-opacity="1" stop-color="rgb(5.595398%, 16.833496%, 38.415527%)" offset="0.0703125"/><stop stop-opacity="1" stop-color="rgb(5.906677%, 16.940308%, 38.632202%)" offset="0.0742188"/><stop stop-opacity="1" stop-color="rgb(6.217957%, 17.047119%, 38.850403%)" offset="0.078125"/><stop stop-opacity="1" stop-color="rgb(6.529236%, 17.153931%, 39.067078%)" offset="0.0820312"/><stop stop-opacity="1" stop-color="rgb(6.840515%, 17.262268%, 39.285278%)" offset="0.0859375"/><stop stop-opacity="1" stop-color="rgb(7.150269%, 17.36908%, 39.503479%)" offset="0.0898438"/><stop stop-opacity="1" stop-color="rgb(7.461548%, 17.477417%, 39.72168%)" offset="0.09375"/><stop stop-opacity="1" stop-color="rgb(7.772827%, 17.584229%, 39.938354%)" offset="0.0976562"/><stop stop-opacity="1" stop-color="rgb(8.084106%, 17.692566%, 40.156555%)" offset="0.101562"/><stop stop-opacity="1" stop-color="rgb(8.39386%, 17.799377%, 40.37323%)" offset="0.105469"/><stop stop-opacity="1" stop-color="rgb(8.705139%, 17.907715%, 40.591431%)" offset="0.109375"/><stop stop-opacity="1" stop-color="rgb(9.016418%, 18.014526%, 40.808105%)" offset="0.113281"/><stop stop-opacity="1" stop-color="rgb(9.327698%, 18.121338%, 41.026306%)" offset="0.117188"/><stop stop-opacity="1" stop-color="rgb(9.637451%, 18.228149%, 41.242981%)" offset="0.121094"/><stop stop-opacity="1" stop-color="rgb(9.94873%, 18.336487%, 41.461182%)" offset="0.125"/><stop stop-opacity="1" stop-color="rgb(10.26001%, 18.443298%, 41.679382%)" offset="0.128906"/><stop stop-opacity="1" stop-color="rgb(10.571289%, 18.551636%, 41.897583%)" offset="0.132813"/><stop stop-opacity="1" stop-color="rgb(10.881042%, 18.658447%, 42.114258%)" offset="0.136719"/><stop stop-opacity="1" stop-color="rgb(11.192322%, 18.766785%, 42.332458%)" offset="0.140625"/><stop stop-opacity="1" stop-color="rgb(11.503601%, 18.873596%, 42.549133%)" offset="0.144531"/><stop stop-opacity="1" stop-color="rgb(11.81488%, 18.981934%, 42.767334%)" offset="0.148438"/><stop stop-opacity="1" stop-color="rgb(12.12616%, 19.088745%, 42.984009%)" offset="0.152344"/><stop stop-opacity="1" stop-color="rgb(12.437439%, 19.195557%, 43.202209%)" offset="0.15625"/><stop stop-opacity="1" stop-color="rgb(12.747192%, 19.302368%, 43.418884%)" offset="0.160156"/><stop stop-opacity="1" stop-color="rgb(13.058472%, 19.410706%, 43.637085%)" offset="0.164063"/><stop stop-opacity="1" stop-color="rgb(13.369751%, 19.517517%, 43.85376%)" offset="0.167969"/><stop stop-opacity="1" stop-color="rgb(13.68103%, 19.625854%, 44.07196%)" offset="0.171875"/><stop stop-opacity="1" stop-color="rgb(13.990784%, 19.732666%, 44.290161%)" offset="0.175781"/><stop stop-opacity="1" stop-color="rgb(14.302063%, 19.841003%, 44.508362%)" offset="0.179688"/><stop stop-opacity="1" stop-color="rgb(14.613342%, 19.947815%, 44.725037%)" offset="0.183594"/><stop stop-opacity="1" stop-color="rgb(14.924622%, 20.056152%, 44.943237%)" offset="0.1875"/><stop stop-opacity="1" stop-color="rgb(15.234375%, 20.162964%, 45.159912%)" offset="0.191406"/><stop stop-opacity="1" stop-color="rgb(15.545654%, 20.269775%, 45.378113%)" offset="0.195312"/><stop stop-opacity="1" stop-color="rgb(15.856934%, 20.376587%, 45.594788%)" offset="0.199219"/><stop stop-opacity="1" stop-color="rgb(16.168213%, 20.484924%, 45.812988%)" offset="0.203125"/><stop stop-opacity="1" stop-color="rgb(16.477966%, 20.591736%, 46.029663%)" offset="0.207031"/><stop stop-opacity="1" stop-color="rgb(16.789246%, 20.700073%, 46.247864%)" offset="0.210938"/><stop stop-opacity="1" stop-color="rgb(17.100525%, 20.806885%, 46.466064%)" offset="0.214844"/><stop stop-opacity="1" stop-color="rgb(17.411804%, 20.915222%, 46.684265%)" offset="0.21875"/><stop stop-opacity="1" stop-color="rgb(17.723083%, 21.022034%, 46.90094%)" offset="0.222656"/><stop stop-opacity="1" stop-color="rgb(18.034363%, 21.130371%, 47.119141%)" offset="0.226562"/><stop stop-opacity="1" stop-color="rgb(18.344116%, 21.237183%, 47.335815%)" offset="0.230469"/><stop stop-opacity="1" stop-color="rgb(18.655396%, 21.343994%, 47.554016%)" offset="0.234375"/><stop stop-opacity="1" stop-color="rgb(18.966675%, 21.450806%, 47.770691%)" offset="0.238281"/><stop stop-opacity="1" stop-color="rgb(19.277954%, 21.559143%, 47.988892%)" offset="0.242188"/><stop stop-opacity="1" stop-color="rgb(19.587708%, 21.665955%, 48.205566%)" offset="0.246094"/><stop stop-opacity="1" stop-color="rgb(19.898987%, 21.774292%, 48.423767%)" offset="0.25"/><stop stop-opacity="1" stop-color="rgb(20.210266%, 21.881104%, 48.640442%)" offset="0.253906"/><stop stop-opacity="1" stop-color="rgb(20.521545%, 21.989441%, 48.858643%)" offset="0.257812"/><stop stop-opacity="1" stop-color="rgb(20.831299%, 22.096252%, 49.076843%)" offset="0.261719"/><stop stop-opacity="1" stop-color="rgb(21.142578%, 22.20459%, 49.295044%)" offset="0.265625"/><stop stop-opacity="1" stop-color="rgb(21.453857%, 22.311401%, 49.511719%)" offset="0.269531"/><stop stop-opacity="1" stop-color="rgb(21.765137%, 22.418213%, 49.729919%)" offset="0.273438"/><stop stop-opacity="1" stop-color="rgb(22.07489%, 22.525024%, 49.946594%)" offset="0.277344"/><stop stop-opacity="1" stop-color="rgb(22.386169%, 22.633362%, 50.164795%)" offset="0.28125"/><stop stop-opacity="1" stop-color="rgb(22.697449%, 22.740173%, 50.38147%)" offset="0.285156"/><stop stop-opacity="1" stop-color="rgb(23.008728%, 22.848511%, 50.59967%)" offset="0.289062"/><stop stop-opacity="1" stop-color="rgb(23.318481%, 22.955322%, 50.816345%)" offset="0.292969"/><stop stop-opacity="1" stop-color="rgb(23.629761%, 23.06366%, 51.034546%)" offset="0.296875"/><stop stop-opacity="1" stop-color="rgb(23.94104%, 23.170471%, 51.252747%)" offset="0.300781"/><stop stop-opacity="1" stop-color="rgb(24.252319%, 23.278809%, 51.470947%)" offset="0.304688"/><stop stop-opacity="1" stop-color="rgb(24.563599%, 23.38562%, 51.687622%)" offset="0.308594"/><stop stop-opacity="1" stop-color="rgb(24.874878%, 23.492432%, 51.905823%)" offset="0.3125"/><stop stop-opacity="1" stop-color="rgb(25.184631%, 23.599243%, 52.122498%)" offset="0.316406"/><stop stop-opacity="1" stop-color="rgb(25.495911%, 23.707581%, 52.340698%)" offset="0.320312"/><stop stop-opacity="1" stop-color="rgb(25.80719%, 23.814392%, 52.557373%)" offset="0.324219"/><stop stop-opacity="1" stop-color="rgb(26.118469%, 23.922729%, 52.775574%)" offset="0.328125"/><stop stop-opacity="1" stop-color="rgb(26.428223%, 24.029541%, 52.992249%)" offset="0.332031"/><stop stop-opacity="1" stop-color="rgb(26.739502%, 24.137878%, 53.210449%)" offset="0.335938"/><stop stop-opacity="1" stop-color="rgb(27.050781%, 24.24469%, 53.42865%)" offset="0.339844"/><stop stop-opacity="1" stop-color="rgb(27.362061%, 24.353027%, 53.646851%)" offset="0.34375"/><stop stop-opacity="1" stop-color="rgb(27.671814%, 24.459839%, 53.863525%)" offset="0.347656"/><stop stop-opacity="1" stop-color="rgb(27.983093%, 24.56665%, 54.081726%)" offset="0.351562"/><stop stop-opacity="1" stop-color="rgb(28.294373%, 24.673462%, 54.298401%)" offset="0.355469"/><stop stop-opacity="1" stop-color="rgb(28.605652%, 24.781799%, 54.516602%)" offset="0.359375"/><stop stop-opacity="1" stop-color="rgb(28.915405%, 24.888611%, 54.733276%)" offset="0.363281"/><stop stop-opacity="1" stop-color="rgb(29.226685%, 24.996948%, 54.951477%)" offset="0.367188"/><stop stop-opacity="1" stop-color="rgb(29.537964%, 25.10376%, 55.168152%)" offset="0.371094"/><stop stop-opacity="1" stop-color="rgb(29.849243%, 25.212097%, 55.386353%)" offset="0.375"/><stop stop-opacity="1" stop-color="rgb(30.160522%, 25.318909%, 55.603027%)" offset="0.378906"/><stop stop-opacity="1" stop-color="rgb(30.471802%, 25.427246%, 55.821228%)" offset="0.382812"/><stop stop-opacity="1" stop-color="rgb(30.781555%, 25.534058%, 56.039429%)" offset="0.386719"/><stop stop-opacity="1" stop-color="rgb(31.092834%, 25.640869%, 56.257629%)" offset="0.390625"/><stop stop-opacity="1" stop-color="rgb(31.404114%, 25.747681%, 56.474304%)" offset="0.394531"/><stop stop-opacity="1" stop-color="rgb(31.715393%, 25.856018%, 56.692505%)" offset="0.398438"/><stop stop-opacity="1" stop-color="rgb(32.025146%, 25.96283%, 56.90918%)" offset="0.402344"/><stop stop-opacity="1" stop-color="rgb(32.336426%, 26.071167%, 57.12738%)" offset="0.40625"/><stop stop-opacity="1" stop-color="rgb(32.647705%, 26.177979%, 57.344055%)" offset="0.410156"/><stop stop-opacity="1" stop-color="rgb(32.958984%, 26.286316%, 57.562256%)" offset="0.414062"/><stop stop-opacity="1" stop-color="rgb(33.268738%, 26.393127%, 57.778931%)" offset="0.417969"/><stop stop-opacity="1" stop-color="rgb(33.580017%, 26.501465%, 57.997131%)" offset="0.421875"/><stop stop-opacity="1" stop-color="rgb(33.891296%, 26.608276%, 58.215332%)" offset="0.425781"/><stop stop-opacity="1" stop-color="rgb(34.202576%, 26.715088%, 58.433533%)" offset="0.429688"/><stop stop-opacity="1" stop-color="rgb(34.512329%, 26.821899%, 58.650208%)" offset="0.433594"/><stop stop-opacity="1" stop-color="rgb(34.823608%, 26.930237%, 58.868408%)" offset="0.4375"/><stop stop-opacity="1" stop-color="rgb(35.134888%, 27.037048%, 59.085083%)" offset="0.441406"/><stop stop-opacity="1" stop-color="rgb(35.446167%, 27.145386%, 59.303284%)" offset="0.445313"/><stop stop-opacity="1" stop-color="rgb(35.757446%, 27.252197%, 59.519958%)" offset="0.449219"/><stop stop-opacity="1" stop-color="rgb(36.068726%, 27.360535%, 59.738159%)" offset="0.453125"/><stop stop-opacity="1" stop-color="rgb(36.378479%, 27.467346%, 59.954834%)" offset="0.457031"/><stop stop-opacity="1" stop-color="rgb(36.689758%, 27.575684%, 60.173035%)" offset="0.460938"/><stop stop-opacity="1" stop-color="rgb(37.001038%, 27.682495%, 60.389709%)" offset="0.464844"/><stop stop-opacity="1" stop-color="rgb(37.312317%, 27.789307%, 60.60791%)" offset="0.46875"/><stop stop-opacity="1" stop-color="rgb(37.62207%, 27.896118%, 60.826111%)" offset="0.472656"/><stop stop-opacity="1" stop-color="rgb(37.93335%, 28.004456%, 61.044312%)" offset="0.476563"/><stop stop-opacity="1" stop-color="rgb(38.244629%, 28.111267%, 61.260986%)" offset="0.480469"/><stop stop-opacity="1" stop-color="rgb(38.555908%, 28.219604%, 61.479187%)" offset="0.484375"/><stop stop-opacity="1" stop-color="rgb(38.865662%, 28.326416%, 61.695862%)" offset="0.488281"/><stop stop-opacity="1" stop-color="rgb(39.176941%, 28.434753%, 61.914062%)" offset="0.492188"/><stop stop-opacity="1" stop-color="rgb(39.48822%, 28.541565%, 62.130737%)" offset="0.496094"/><stop stop-opacity="1" stop-color="rgb(39.7995%, 28.649902%, 62.348938%)" offset="0.5"/><stop stop-opacity="1" stop-color="rgb(40.109253%, 28.756714%, 62.565613%)" offset="0.503906"/><stop stop-opacity="1" stop-color="rgb(40.420532%, 28.863525%, 62.783813%)" offset="0.507812"/><stop stop-opacity="1" stop-color="rgb(40.731812%, 28.970337%, 63.002014%)" offset="0.511719"/><stop stop-opacity="1" stop-color="rgb(41.043091%, 29.078674%, 63.220215%)" offset="0.515625"/><stop stop-opacity="1" stop-color="rgb(41.352844%, 29.185486%, 63.43689%)" offset="0.519531"/><stop stop-opacity="1" stop-color="rgb(41.664124%, 29.293823%, 63.65509%)" offset="0.523438"/><stop stop-opacity="1" stop-color="rgb(41.975403%, 29.400635%, 63.871765%)" offset="0.527344"/><stop stop-opacity="1" stop-color="rgb(42.286682%, 29.508972%, 64.089966%)" offset="0.53125"/><stop stop-opacity="1" stop-color="rgb(42.597961%, 29.615784%, 64.306641%)" offset="0.535156"/><stop stop-opacity="1" stop-color="rgb(42.909241%, 29.724121%, 64.524841%)" offset="0.539062"/><stop stop-opacity="1" stop-color="rgb(43.218994%, 29.830933%, 64.741516%)" offset="0.542969"/><stop stop-opacity="1" stop-color="rgb(43.530273%, 29.937744%, 64.959717%)" offset="0.546875"/><stop stop-opacity="1" stop-color="rgb(43.841553%, 30.044556%, 65.176392%)" offset="0.550781"/><stop stop-opacity="1" stop-color="rgb(44.152832%, 30.152893%, 65.394592%)" offset="0.554688"/><stop stop-opacity="1" stop-color="rgb(44.462585%, 30.259705%, 65.612793%)" offset="0.558594"/><stop stop-opacity="1" stop-color="rgb(44.773865%, 30.368042%, 65.830994%)" offset="0.5625"/><stop stop-opacity="1" stop-color="rgb(45.085144%, 30.474854%, 66.047668%)" offset="0.566406"/><stop stop-opacity="1" stop-color="rgb(45.396423%, 30.583191%, 66.265869%)" offset="0.570312"/><stop stop-opacity="1" stop-color="rgb(45.706177%, 30.690002%, 66.482544%)" offset="0.574219"/><stop stop-opacity="1" stop-color="rgb(46.017456%, 30.79834%, 66.700745%)" offset="0.578125"/><stop stop-opacity="1" stop-color="rgb(46.328735%, 30.905151%, 66.917419%)" offset="0.582031"/><stop stop-opacity="1" stop-color="rgb(46.640015%, 31.011963%, 67.13562%)" offset="0.585938"/><stop stop-opacity="1" stop-color="rgb(46.949768%, 31.118774%, 67.352295%)" offset="0.589844"/><stop stop-opacity="1" stop-color="rgb(47.261047%, 31.227112%, 67.570496%)" offset="0.59375"/><stop stop-opacity="1" stop-color="rgb(47.572327%, 31.333923%, 67.788696%)" offset="0.597656"/><stop stop-opacity="1" stop-color="rgb(47.883606%, 31.442261%, 68.006897%)" offset="0.601562"/><stop stop-opacity="1" stop-color="rgb(48.194885%, 31.549072%, 68.223572%)" offset="0.605469"/><stop stop-opacity="1" stop-color="rgb(48.506165%, 31.65741%, 68.441772%)" offset="0.609375"/><stop stop-opacity="1" stop-color="rgb(48.815918%, 31.764221%, 68.658447%)" offset="0.613281"/><stop stop-opacity="1" stop-color="rgb(49.127197%, 31.872559%, 68.876648%)" offset="0.617188"/><stop stop-opacity="1" stop-color="rgb(49.438477%, 31.97937%, 69.093323%)" offset="0.621094"/><stop stop-opacity="1" stop-color="rgb(49.749756%, 32.086182%, 69.311523%)" offset="0.625"/><stop stop-opacity="1" stop-color="rgb(50.059509%, 32.192993%, 69.528198%)" offset="0.628906"/><stop stop-opacity="1" stop-color="rgb(50.370789%, 32.301331%, 69.746399%)" offset="0.632812"/><stop stop-opacity="1" stop-color="rgb(50.682068%, 32.408142%, 69.9646%)" offset="0.636719"/><stop stop-opacity="1" stop-color="rgb(50.993347%, 32.516479%, 70.1828%)" offset="0.640625"/><stop stop-opacity="1" stop-color="rgb(51.303101%, 32.623291%, 70.399475%)" offset="0.644531"/><stop stop-opacity="1" stop-color="rgb(51.61438%, 32.731628%, 70.617676%)" offset="0.648438"/><stop stop-opacity="1" stop-color="rgb(51.925659%, 32.83844%, 70.834351%)" offset="0.652344"/><stop stop-opacity="1" stop-color="rgb(52.236938%, 32.946777%, 71.052551%)" offset="0.65625"/><stop stop-opacity="1" stop-color="rgb(52.546692%, 33.053589%, 71.269226%)" offset="0.660156"/><stop stop-opacity="1" stop-color="rgb(52.857971%, 33.1604%, 71.487427%)" offset="0.664062"/><stop stop-opacity="1" stop-color="rgb(53.16925%, 33.267212%, 71.704102%)" offset="0.667969"/><stop stop-opacity="1" stop-color="rgb(53.48053%, 33.375549%, 71.922302%)" offset="0.671875"/><stop stop-opacity="1" stop-color="rgb(53.791809%, 33.482361%, 72.138977%)" offset="0.675781"/><stop stop-opacity="1" stop-color="rgb(54.103088%, 33.590698%, 72.357178%)" offset="0.679688"/><stop stop-opacity="1" stop-color="rgb(54.412842%, 33.69751%, 72.575378%)" offset="0.683594"/><stop stop-opacity="1" stop-color="rgb(54.724121%, 33.805847%, 72.793579%)" offset="0.6875"/><stop stop-opacity="1" stop-color="rgb(55.0354%, 33.912659%, 73.010254%)" offset="0.691406"/><stop stop-opacity="1" stop-color="rgb(55.34668%, 34.020996%, 73.228455%)" offset="0.695312"/><stop stop-opacity="1" stop-color="rgb(55.656433%, 34.127808%, 73.445129%)" offset="0.699219"/><stop stop-opacity="1" stop-color="rgb(55.967712%, 34.234619%, 73.66333%)" offset="0.703125"/><stop stop-opacity="1" stop-color="rgb(56.278992%, 34.341431%, 73.880005%)" offset="0.707031"/><stop stop-opacity="1" stop-color="rgb(56.590271%, 34.449768%, 74.098206%)" offset="0.710938"/><stop stop-opacity="1" stop-color="rgb(56.900024%, 34.55658%, 74.31488%)" offset="0.714844"/><stop stop-opacity="1" stop-color="rgb(57.211304%, 34.664917%, 74.533081%)" offset="0.71875"/><stop stop-opacity="1" stop-color="rgb(57.522583%, 34.771729%, 74.751282%)" offset="0.722656"/><stop stop-opacity="1" stop-color="rgb(57.833862%, 34.880066%, 74.969482%)" offset="0.726562"/><stop stop-opacity="1" stop-color="rgb(58.143616%, 34.986877%, 75.186157%)" offset="0.730469"/><stop stop-opacity="1" stop-color="rgb(58.454895%, 35.095215%, 75.404358%)" offset="0.734375"/><stop stop-opacity="1" stop-color="rgb(58.766174%, 35.202026%, 75.621033%)" offset="0.738281"/><stop stop-opacity="1" stop-color="rgb(59.077454%, 35.308838%, 75.839233%)" offset="0.742188"/><stop stop-opacity="1" stop-color="rgb(59.387207%, 35.415649%, 76.055908%)" offset="0.746094"/><stop stop-opacity="1" stop-color="rgb(59.698486%, 35.523987%, 76.274109%)" offset="0.75"/><stop stop-opacity="1" stop-color="rgb(60.009766%, 35.630798%, 76.490784%)" offset="0.753906"/><stop stop-opacity="1" stop-color="rgb(60.321045%, 35.739136%, 76.708984%)" offset="0.757812"/><stop stop-opacity="1" stop-color="rgb(60.632324%, 35.845947%, 76.925659%)" offset="0.761719"/><stop stop-opacity="1" stop-color="rgb(60.943604%, 35.954285%, 77.14386%)" offset="0.765625"/><stop stop-opacity="1" stop-color="rgb(61.253357%, 36.061096%, 77.362061%)" offset="0.769531"/><stop stop-opacity="1" stop-color="rgb(61.564636%, 36.169434%, 77.580261%)" offset="0.773438"/><stop stop-opacity="1" stop-color="rgb(61.875916%, 36.276245%, 77.796936%)" offset="0.777344"/><stop stop-opacity="1" stop-color="rgb(62.187195%, 36.383057%, 78.015137%)" offset="0.78125"/><stop stop-opacity="1" stop-color="rgb(62.496948%, 36.489868%, 78.231812%)" offset="0.785156"/><stop stop-opacity="1" stop-color="rgb(62.808228%, 36.598206%, 78.450012%)" offset="0.789062"/><stop stop-opacity="1" stop-color="rgb(63.119507%, 36.705017%, 78.666687%)" offset="0.792969"/><stop stop-opacity="1" stop-color="rgb(63.430786%, 36.813354%, 78.884888%)" offset="0.796875"/><stop stop-opacity="1" stop-color="rgb(63.74054%, 36.920166%, 79.101562%)" offset="0.800781"/><stop stop-opacity="1" stop-color="rgb(64.051819%, 37.028503%, 79.319763%)" offset="0.804688"/><stop stop-opacity="1" stop-color="rgb(64.363098%, 37.135315%, 79.537964%)" offset="0.808594"/><stop stop-opacity="1" stop-color="rgb(64.674377%, 37.243652%, 79.756165%)" offset="0.8125"/><stop stop-opacity="1" stop-color="rgb(64.984131%, 37.350464%, 79.972839%)" offset="0.816406"/><stop stop-opacity="1" stop-color="rgb(65.29541%, 37.457275%, 80.19104%)" offset="0.820312"/><stop stop-opacity="1" stop-color="rgb(65.606689%, 37.564087%, 80.407715%)" offset="0.824219"/><stop stop-opacity="1" stop-color="rgb(65.917969%, 37.672424%, 80.625916%)" offset="0.828125"/><stop stop-opacity="1" stop-color="rgb(66.229248%, 37.779236%, 80.84259%)" offset="0.832031"/><stop stop-opacity="1" stop-color="rgb(66.540527%, 37.887573%, 81.060791%)" offset="0.835938"/><stop stop-opacity="1" stop-color="rgb(66.850281%, 37.994385%, 81.277466%)" offset="0.839844"/><stop stop-opacity="1" stop-color="rgb(67.16156%, 38.102722%, 81.495667%)" offset="0.84375"/><stop stop-opacity="1" stop-color="rgb(67.472839%, 38.209534%, 81.712341%)" offset="0.847656"/><stop stop-opacity="1" stop-color="rgb(67.784119%, 38.317871%, 81.930542%)" offset="0.851563"/><stop stop-opacity="1" stop-color="rgb(68.093872%, 38.424683%, 82.148743%)" offset="0.855469"/><stop stop-opacity="1" stop-color="rgb(68.405151%, 38.531494%, 82.366943%)" offset="0.859375"/><stop stop-opacity="1" stop-color="rgb(68.716431%, 38.638306%, 82.583618%)" offset="0.863281"/><stop stop-opacity="1" stop-color="rgb(69.02771%, 38.746643%, 82.801819%)" offset="0.867188"/><stop stop-opacity="1" stop-color="rgb(69.337463%, 38.853455%, 83.018494%)" offset="0.871094"/><stop stop-opacity="1" stop-color="rgb(69.648743%, 38.961792%, 83.236694%)" offset="0.875"/><stop stop-opacity="1" stop-color="rgb(69.960022%, 39.068604%, 83.453369%)" offset="0.878906"/><stop stop-opacity="1" stop-color="rgb(70.271301%, 39.176941%, 83.67157%)" offset="0.882813"/><stop stop-opacity="1" stop-color="rgb(70.581055%, 39.283752%, 83.888245%)" offset="0.886719"/><stop stop-opacity="1" stop-color="rgb(70.892334%, 39.39209%, 84.106445%)" offset="0.890625"/><stop stop-opacity="1" stop-color="rgb(71.203613%, 39.498901%, 84.324646%)" offset="0.894531"/><stop stop-opacity="1" stop-color="rgb(71.514893%, 39.605713%, 84.542847%)" offset="0.898438"/><stop stop-opacity="1" stop-color="rgb(71.826172%, 39.712524%, 84.759521%)" offset="0.902344"/><stop stop-opacity="1" stop-color="rgb(72.137451%, 39.820862%, 84.977722%)" offset="0.90625"/><stop stop-opacity="1" stop-color="rgb(72.447205%, 39.927673%, 85.194397%)" offset="0.910156"/><stop stop-opacity="1" stop-color="rgb(72.758484%, 40.036011%, 85.412598%)" offset="0.914063"/><stop stop-opacity="1" stop-color="rgb(73.069763%, 40.142822%, 85.629272%)" offset="0.917969"/><stop stop-opacity="1" stop-color="rgb(73.381042%, 40.25116%, 85.847473%)" offset="0.921875"/><stop stop-opacity="1" stop-color="rgb(73.690796%, 40.357971%, 86.064148%)" offset="0.925781"/><stop stop-opacity="1" stop-color="rgb(74.002075%, 40.466309%, 86.282349%)" offset="0.929688"/><stop stop-opacity="1" stop-color="rgb(74.313354%, 40.57312%, 86.499023%)" offset="0.933594"/><stop stop-opacity="1" stop-color="rgb(74.624634%, 40.679932%, 86.717224%)" offset="0.9375"/><stop stop-opacity="1" stop-color="rgb(74.934387%, 40.786743%, 86.935425%)" offset="0.941406"/><stop stop-opacity="1" stop-color="rgb(75.245667%, 40.895081%, 87.153625%)" offset="0.945313"/><stop stop-opacity="1" stop-color="rgb(75.556946%, 41.001892%, 87.3703%)" offset="0.949219"/><stop stop-opacity="1" stop-color="rgb(75.868225%, 41.110229%, 87.588501%)" offset="0.953125"/><stop stop-opacity="1" stop-color="rgb(76.177979%, 41.217041%, 87.805176%)" offset="0.957031"/><stop stop-opacity="1" stop-color="rgb(76.489258%, 41.325378%, 88.023376%)" offset="0.960938"/><stop stop-opacity="1" stop-color="rgb(76.800537%, 41.43219%, 88.240051%)" offset="0.964844"/><stop stop-opacity="1" stop-color="rgb(77.111816%, 41.540527%, 88.458252%)" offset="0.96875"/><stop stop-opacity="1" stop-color="rgb(77.42157%, 41.647339%, 88.674927%)" offset="0.972656"/><stop stop-opacity="1" stop-color="rgb(77.732849%, 41.75415%, 88.893127%)" offset="0.976563"/><stop stop-opacity="1" stop-color="rgb(78.044128%, 41.860962%, 89.111328%)" offset="0.980469"/><stop stop-opacity="1" stop-color="rgb(78.355408%, 41.969299%, 89.329529%)" offset="0.984375"/><stop stop-opacity="1" stop-color="rgb(78.666687%, 42.076111%, 89.546204%)" offset="0.988281"/><stop stop-opacity="1" stop-color="rgb(78.977966%, 42.184448%, 89.764404%)" offset="0.992188"/><stop stop-opacity="1" stop-color="rgb(79.28772%, 42.29126%, 89.981079%)" offset="0.996094"/><stop stop-opacity="1" stop-color="rgb(79.598999%, 42.399597%, 90.19928%)" offset="1"/></linearGradient><clipPath id="5f6229b38a"><path d="M 58.5 58.5 L 316.5 58.5 L 316.5 316.5 L 58.5 316.5 Z M 58.5 58.5 " clip-rule="nonzero"/></clipPath><clipPath id="4649b08927"><path d="M 187.5 316.5 C 153.058594 316.5 120.628906 303.09375 96.292969 278.707031 C 71.90625 254.371094 58.5 221.941406 58.5 187.5 C 58.5 153.058594 71.90625 120.628906 96.292969 96.292969 C 120.628906 71.90625 153.058594 58.5 187.5 58.5 C 221.941406 58.5 254.371094 71.90625 278.707031 96.292969 C 303.09375 120.679688 316.5 153.058594 316.5 187.5 C 316.5 221.941406 303.09375 254.371094 278.707031 278.707031 C 254.371094 303.09375 221.941406 316.5 187.5 316.5 Z M 187.5 66.234375 C 155.121094 66.234375 124.648438 78.867188 101.757812 101.757812 C 78.867188 124.648438 66.234375 155.121094 66.234375 187.5 C 66.234375 219.878906 78.867188 250.351562 101.757812 273.242188 C 124.648438 296.132812 155.121094 308.765625 187.5 308.765625 C 219.878906 308.765625 250.351562 296.132812 273.242188 273.242188 C 296.132812 250.351562 308.765625 219.878906 308.765625 187.5 C 308.765625 155.121094 296.132812 124.648438 273.242188 101.757812 C 250.351562 78.867188 219.878906 66.234375 187.5 66.234375 Z M 187.5 66.234375 " clip-rule="nonzero"/></clipPath><clipPath id="1c110de490"><path d="M 72.5 110 L 302.75 110 L 302.75 265 L 72.5 265 Z M 72.5 110 " clip-rule="nonzero"/></clipPath></defs><g clip-path="url(#ad276be496)"><g clip-path="url(#d287825fec)"><path fill="url(#5497764518)" d="M 62.652344 312.34375 L 312.347656 312.34375 L 312.347656 62.644531 L 62.652344 62.644531 Z M 62.652344 312.34375 " fill-rule="nonzero"/></g></g><g clip-path="url(#5f6229b38a)"><g clip-path="url(#4649b08927)"><path fill="#000000" d="M 58.5 58.5 L 316.5 58.5 L 316.5 316.5 L 58.5 316.5 Z M 58.5 58.5 " fill-opacity="1" fill-rule="nonzero"/></g></g><g clip-path="url(#1c110de490)"><path fill="#ffbd59" d="M 103.578125 230.65625 C 103.765625 229.0625 103.945312 227.484375 104.101562 225.890625 C 102.730469 225.988281 101.367188 226.59375 101.277344 228.15625 C 101.195312 229.765625 102.070312 230.542969 103.578125 230.65625 Z M 199.9375 148.132812 C 197.367188 139.492188 191.25 132.421875 188.050781 124.191406 C 184.832031 132.421875 178.726562 139.492188 176.144531 148.132812 C 181.902344 149.648438 185.042969 154.3125 187.257812 159.808594 C 187.371094 157.878906 187.511719 155.753906 187.625 153.523438 C 187.992188 145.003906 188.34375 138.054688 189.03125 138.046875 C 189.65625 138.03125 190.375 145.003906 190.015625 153.636719 C 189.925781 155.15625 189.796875 156.605469 189.65625 157.992188 C 191.839844 153.316406 194.820312 149.484375 199.9375 148.132812 Z M 195.300781 181.28125 C 195.480469 178.640625 194.523438 177.277344 192.433594 177.179688 C 189.511719 176.320312 188.058594 175.265625 185.054688 176.5 C 184.703125 176.65625 184.324219 176.992188 183.933594 177.433594 C 182.871094 178.617188 181.730469 180.417969 180.773438 180.417969 C 185.722656 180.449219 190.546875 179.964844 195.300781 181.28125 Z M 265.710938 252.132812 C 267.652344 248.542969 249.761719 244.980469 247.5 244.441406 C 235.980469 241.710938 224.222656 241.105469 212.421875 241.300781 C 199.203125 241.523438 186.015625 241.808594 172.820312 241.890625 C 165.90625 241.9375 114.085938 241.808594 115.453125 253.433594 C 118.03125 254.316406 120.40625 254.953125 121.632812 255.261719 C 129.609375 257.289062 137.734375 257.765625 145.898438 258.6875 C 161.789062 260.460938 177.5 260.601562 193.480469 260.398438 C 207.84375 260.21875 222.1875 259.613281 236.535156 258.484375 C 245.84375 257.757812 256.753906 257.0625 265.496094 252.738281 C 265.539062 252.542969 265.589844 252.351562 265.710938 252.132812 Z M 272.742188 232.539062 C 274.75 232.234375 276.285156 230.894531 275.550781 228.695312 C 275.011719 227.035156 273.648438 226.03125 272.003906 226.089844 C 272.21875 228.246094 272.496094 230.402344 272.742188 232.539062 Z M 295.097656 157.578125 C 292.238281 160.132812 289.21875 162.511719 285.917969 164.371094 C 279.976562 167.722656 273.828125 167.484375 267.53125 169.046875 C 270.40625 178.175781 277.214844 194.714844 267.023438 200.4375 C 253.117188 208.242188 241.792969 193.929688 242.324219 181.21875 C 242.382812 179.714844 243.625 178.984375 245.003906 179.175781 C 251.339844 180.054688 251.917969 170.019531 248.5625 170.328125 C 245.820312 170.582031 245.894531 166.398438 248.5625 166.109375 C 251.496094 165.777344 250.636719 159.972656 249.214844 158.867188 C 245.417969 155.890625 241.394531 161.371094 244.601562 164.820312 C 245.894531 166.21875 244.953125 168.316406 243.101562 168.425781 C 239.988281 168.613281 236.648438 171.375 239.058594 174.597656 C 239.6875 175.445312 240.355469 176.261719 240.757812 177.246094 C 241.550781 179.109375 241.710938 181.203125 240.519531 183.023438 C 237.335938 187.9375 232.144531 191.925781 226.605469 193.914062 C 214.628906 198.210938 199.890625 198.238281 193.804688 185.273438 C 190.105469 184.378906 186.398438 184.570312 182.59375 184.632812 C 176.8125 197.910156 160.933594 198.996094 148.984375 193.699219 C 144.363281 191.65625 137.046875 187.773438 135.351562 182.515625 C 134.714844 180.546875 134.304688 178.632812 135.53125 176.738281 C 137.765625 173.34375 138.976562 168.777344 132.992188 168.425781 C 131.144531 168.316406 130.199219 166.21875 131.496094 164.820312 C 134.777344 161.289062 129.734375 155.199219 126.890625 158.867188 C 125.917969 160.101562 124.125 165.695312 127.511719 166.109375 C 127.5625 166.109375 127.625 166.109375 127.691406 166.109375 C 129.832031 166.527344 130.148438 169.496094 128.3125 170.207031 C 126.832031 170.785156 125.835938 170.992188 125.566406 172.839844 C 125.101562 175.953125 127.738281 179.640625 131.089844 179.175781 C 132.46875 178.984375 133.707031 179.714844 133.773438 181.21875 C 134.058594 187.96875 132.621094 193.453125 127.4375 198.308594 C 122.351562 203.109375 113.679688 203.984375 108.09375 199.691406 C 100.542969 193.886719 104.265625 181.996094 107.261719 173.035156 C 107.15625 173.050781 107.058594 173.082031 106.949219 173.09375 C 102.507812 173.882812 98.417969 173.066406 95.765625 171.996094 C 94.410156 171.414062 93.386719 170.910156 92.761719 170.433594 C 92.113281 169.976562 91.773438 169.652344 91.84375 169.496094 C 91.917969 169.363281 92.367188 169.386719 93.144531 169.585938 C 93.910156 169.828125 94.996094 170.066406 96.261719 170.386719 C 98.882812 171.007812 102.589844 171.457031 106.542969 170.753906 C 107.089844 170.6875 107.613281 170.542969 108.128906 170.402344 C 108.289062 169.953125 108.429688 169.496094 108.574219 169.0625 C 102.3125 167.582031 95.878906 167.976562 90.179688 164.371094 C 86.882812 162.285156 83.851562 159.921875 80.945312 157.398438 C 84.96875 166.332031 89.632812 174.785156 94.839844 183.195312 C 99.578125 190.871094 104.042969 198.6875 105.089844 207.777344 C 105.398438 207.605469 105.703125 207.433594 106.035156 207.285156 C 107.539062 206.664062 108.945312 205.980469 110.347656 205.503906 C 111.753906 205.070312 113.109375 204.65625 114.375 204.269531 C 115.679688 203.96875 116.90625 203.679688 118.074219 203.410156 C 122.742188 202.464844 126.410156 202.011719 129.1875 201.652344 C 134.753906 200.96875 136.886719 200.777344 136.949219 201.082031 C 137 201.335938 134.957031 202.070312 129.429688 203.125 C 126.664062 203.679688 123.054688 204.300781 118.503906 205.324219 C 117.371094 205.609375 116.171875 205.898438 114.914062 206.214844 C 113.6875 206.601562 112.40625 207.03125 111.050781 207.464844 C 109.710938 207.941406 108.386719 208.59375 106.949219 209.183594 C 106.160156 209.566406 105.382812 210.015625 104.597656 210.476562 C 102.761719 212.328125 100.972656 216.957031 105.269531 216.1875 C 105.425781 216.15625 105.585938 216.140625 105.71875 216.140625 C 107.90625 214.675781 110.175781 213.605469 112.363281 212.746094 C 115.011719 211.71875 117.582031 210.972656 119.992188 210.320312 C 124.769531 208.996094 129.097656 207.828125 133.074219 206.84375 C 135.097656 206.421875 137 206.011719 138.804688 205.660156 C 140.625 205.421875 142.347656 205.195312 143.964844 204.972656 C 147.175781 204.761719 149.984375 204.652344 152.414062 204.546875 C 154.839844 204.394531 156.882812 204.492188 158.589844 204.5625 C 160.296875 204.636719 161.660156 204.71875 162.722656 204.832031 C 164.851562 205.023438 165.765625 205.265625 165.765625 205.546875 C 165.765625 205.816406 164.851562 206.109375 162.746094 206.394531 C 161.691406 206.535156 160.34375 206.679688 158.664062 206.820312 C 156.980469 206.953125 154.949219 207.058594 152.597656 207.382812 C 150.226562 207.652344 147.492188 207.941406 144.363281 208.292969 C 142.828125 208.5625 141.1875 208.847656 139.457031 209.140625 C 137.734375 209.550781 135.914062 209.984375 133.980469 210.441406 C 130.148438 211.496094 125.835938 212.746094 121.0625 214.113281 C 118.683594 214.789062 116.257812 215.519531 113.816406 216.476562 C 112.039062 217.1875 110.25 218.019531 108.574219 219.074219 C 108.609375 219.238281 108.65625 219.425781 108.65625 219.636719 C 108.738281 225.664062 107.488281 231.582031 107.105469 237.582031 C 109.710938 235.988281 112.421875 234.964844 115.011719 234.164062 C 118.359375 233.175781 121.589844 232.539062 124.636719 232.046875 C 127.707031 231.566406 130.539062 231.15625 133.308594 230.796875 C 136.117188 230.542969 138.773438 230.132812 141.292969 230.085938 C 146.308594 229.792969 150.765625 229.847656 154.660156 229.863281 C 158.5625 229.890625 161.992188 229.960938 164.949219 230.035156 C 176.796875 230.324219 181.28125 230.820312 181.28125 231.371094 C 181.28125 231.933594 176.796875 232.457031 164.992188 232.875 C 162.042969 232.972656 158.636719 233.078125 154.710938 233.207031 C 150.792969 233.339844 146.40625 233.398438 141.53125 233.78125 C 139.058594 233.878906 136.550781 234.3125 133.855469 234.597656 C 131.144531 234.992188 128.246094 235.441406 125.296875 235.9375 C 122.320312 236.445312 119.257812 237.074219 116.1875 237.992188 C 113.222656 238.90625 110.25 240.148438 107.710938 242.035156 C 107.679688 242.0625 107.652344 242.09375 107.613281 242.125 C 101.503906 245.878906 105.667969 249.304688 111.117188 251.757812 C 112.855469 236.003906 165.105469 237.679688 173.890625 237.664062 C 194.3125 237.628906 215.265625 235.398438 235.5625 238.03125 C 244.554688 239.191406 254.484375 240.980469 263.058594 244.21875 C 266.0625 245.363281 269.066406 247.039062 269.964844 249.558594 C 270.136719 249.515625 270.300781 249.46875 270.488281 249.445312 C 270.617188 249.433594 270.699219 249.402344 270.8125 249.386719 C 271.019531 249.222656 271.238281 249.066406 271.449219 248.894531 C 271.71875 248.667969 272.003906 248.527344 272.28125 248.445312 C 273.09375 246.613281 270.085938 242.894531 268.488281 242.125 C 268.160156 241.964844 267.921875 241.757812 267.742188 241.523438 C 267.457031 241.398438 267.164062 241.277344 266.894531 241.136719 C 265.613281 240.515625 264.3125 239.835938 263.128906 239.289062 C 261.929688 238.742188 260.746094 238.074219 259.601562 237.710938 C 258.449219 237.304688 257.40625 236.75 256.179688 236.542969 C 253.804688 235.972656 251.59375 235.34375 249.421875 234.917969 C 247.238281 234.515625 245.148438 234.132812 243.183594 233.75 C 235.230469 232.523438 228.984375 231.484375 224.246094 230.878906 C 219.496094 230.132812 216.210938 229.824219 214.128906 229.414062 C 212.039062 229.03125 211.132812 228.710938 211.132812 228.441406 C 211.132812 228.15625 212.070312 227.945312 214.210938 227.847656 C 216.335938 227.78125 219.707031 227.664062 224.546875 228.042969 C 229.414062 228.296875 235.671875 229.046875 243.753906 230.085938 C 245.785156 230.429688 247.910156 230.78125 250.15625 231.15625 C 252.410156 231.539062 254.761719 232.1875 257.25 232.734375 C 258.484375 232.953125 259.757812 233.558594 261.070312 234.007812 C 262.410156 234.457031 263.578125 235.105469 264.867188 235.683594 C 266.144531 236.273438 267.34375 236.894531 268.640625 237.515625 C 268.753906 237.566406 268.863281 237.628906 269 237.664062 C 268.625 231.640625 267.359375 225.695312 267.441406 219.636719 C 267.441406 219.539062 267.457031 219.46875 267.472656 219.378906 C 262.820312 217 258.402344 214.988281 254.261719 213.382812 C 252.988281 212.933594 251.761719 212.378906 250.5625 212.027344 C 249.347656 211.691406 248.195312 211.292969 247.019531 211.015625 C 245.84375 210.746094 244.683594 210.492188 243.566406 210.238281 C 242.429688 210.058594 241.328125 209.871094 240.242188 209.691406 C 231.554688 208.449219 224.574219 208.382812 219.273438 208.144531 C 208.609375 207.777344 204.550781 207.285156 204.550781 206.714844 C 204.550781 206.167969 208.59375 205.660156 219.273438 205.292969 C 221.945312 205.226562 225.039062 205.136719 228.605469 205.210938 C 232.175781 205.242188 236.207031 205.464844 240.75 206.011719 C 241.890625 206.183594 243.042969 206.347656 244.25 206.519531 C 245.445312 206.761719 246.667969 207.015625 247.925781 207.269531 C 249.183594 207.5625 250.449219 207.957031 251.761719 208.324219 C 253.078125 208.691406 254.3125 209.230469 255.652344 209.691406 C 260.207031 211.40625 265.015625 213.574219 270.039062 216.1875 C 270.292969 216.140625 270.542969 216.125 270.8125 216.1875 C 274.085938 216.777344 273.828125 214.242188 272.734375 212.183594 C 271.828125 211.355469 270.839844 210.636719 269.808594 210.042969 C 268.109375 209.058594 266.304688 208.355469 264.550781 207.828125 C 260.890625 206.859375 257.554688 205.980469 254.582031 205.195312 C 251.609375 204.367188 248.957031 203.617188 246.613281 202.960938 C 245.453125 202.71875 244.359375 202.488281 243.34375 202.292969 C 242.324219 202.054688 241.34375 202.023438 240.4375 201.898438 C 233.148438 201.238281 230.3125 200.664062 230.371094 200.378906 C 230.4375 200.078125 233.164062 200.109375 240.578125 200.410156 C 241.492188 200.492188 242.511719 200.460938 243.582031 200.679688 C 244.667969 200.84375 245.8125 201.042969 247.050781 201.253906 C 249.421875 201.859375 252.089844 202.546875 255.09375 203.328125 C 258.09375 204.066406 261.433594 204.898438 265.136719 205.832031 C 267.007812 206.378906 268.9375 207.125 270.839844 208.195312 C 270.886719 208.097656 270.925781 208.003906 271 207.90625 C 272.085938 198.03125 277.257812 189.546875 282.464844 181.289062 C 287.273438 173.640625 291.457031 165.777344 295.097656 157.578125 Z M 302.730469 144.960938 C 302.828125 148.003906 302.683594 150.890625 301.359375 153.621094 C 299.9375 156.554688 298.863281 159.683594 297.507812 162.636719 C 294.84375 168.515625 291.871094 174.246094 288.441406 179.714844 C 282.957031 188.460938 276.285156 197.574219 275.199219 208.128906 C 275.183594 208.152344 275.183594 208.183594 275.171875 208.210938 C 277.050781 210.367188 278.300781 213.425781 277.582031 216.238281 C 276.832031 219.253906 274.382812 220.398438 271.671875 220.414062 C 271.6875 220.921875 271.6875 221.40625 271.703125 221.902344 C 275.46875 221.773438 279.148438 224.214844 279.78125 228.1875 C 280.539062 232.921875 277.542969 236.003906 273.15625 236.722656 C 273.222656 237.753906 273.296875 238.792969 273.3125 239.828125 C 273.3125 240.035156 273.28125 240.214844 273.238281 240.402344 C 275.027344 242.191406 276.269531 244.628906 276.570312 247.039062 C 276.960938 250.121094 275.3125 252.179688 272.839844 253.121094 C 262.238281 261.011719 247.5 261.941406 234.753906 262.839844 C 214.734375 264.265625 194.746094 264.714844 174.667969 264.714844 C 164.101562 264.714844 153.804688 263.726562 143.320312 262.628906 C 134.011719 261.65625 124.816406 261.050781 115.902344 257.9375 C 111.195312 256.292969 102.664062 254.757812 100.042969 250.007812 C 98.207031 246.6875 100.28125 243.019531 102.875 240.5 C 102.820312 240.304688 102.777344 240.074219 102.777344 239.828125 C 102.820312 238.160156 102.933594 236.496094 103.097656 234.851562 C 99.535156 234.484375 96.648438 231.738281 97.078125 227.894531 C 97.503906 224.070312 100.6875 221.582031 104.394531 221.664062 C 104.410156 221.242188 104.410156 220.832031 104.410156 220.414062 C 101.734375 220.382812 99.039062 219.285156 98.5 216.238281 C 97.984375 213.3125 98.996094 210.410156 100.910156 208.210938 C 100.910156 208.183594 100.902344 208.152344 100.902344 208.128906 C 99.726562 196.804688 92.210938 187.375 86.53125 177.914062 C 83.328125 172.558594 80.503906 166.960938 77.964844 161.261719 C 76.902344 158.882812 75.472656 156.351562 74.828125 153.832031 C 74.160156 151.226562 72.511719 148.371094 72.707031 145.625 C 74.492188 145.933594 76.378906 147.90625 77.816406 148.976562 C 80.070312 150.636719 81.988281 152.851562 84.078125 154.691406 C 86.628906 156.953125 89.347656 159.046875 92.308594 160.722656 C 98.417969 164.179688 105.253906 163.480469 111.769531 165.554688 C 112.871094 165.90625 113.566406 167.007812 113.253906 168.15625 C 111.289062 175.378906 106.5 184.519531 108.429688 192.128906 C 110.503906 200.265625 121.320312 199.628906 126.015625 193.871094 C 128.808594 190.445312 129.570312 187.183594 129.609375 183.261719 C 122.039062 182.238281 119.597656 172.046875 123.078125 167.851562 C 119.992188 163.847656 121.699219 156.253906 126.890625 154.046875 C 133.691406 151.160156 137.890625 159.015625 136.167969 164.792969 C 141.410156 166.414062 144.886719 171.105469 140.691406 176.722656 C 135.082031 184.25 151.386719 190.535156 156.222656 191.460938 C 164.894531 193.121094 173.3125 192.5 177.925781 184.488281 C 175.289062 182.460938 174.75 178.191406 177.546875 175.414062 C 181.125 171.839844 187.304688 172.699219 184.792969 165.359375 C 182.816406 159.636719 180.644531 152.507812 173.539062 151.894531 C 172.128906 151.765625 171.179688 150.636719 171.492188 149.214844 C 173.015625 142.167969 177.304688 136.199219 180.789062 129.996094 C 182.511719 126.945312 184.074219 123.757812 185.003906 120.347656 C 185.4375 118.714844 186.03125 117.121094 186.316406 115.460938 C 186.597656 113.671875 186.636719 111.773438 187.625 110.195312 C 187.355469 110.613281 189.65625 114.421875 189.863281 115.09375 C 190.402344 116.769531 190.621094 118.519531 191.070312 120.21875 C 191.96875 123.675781 193.5625 126.886719 195.300781 129.996094 C 198.785156 136.183594 203.066406 142.152344 204.601562 149.214844 C 204.902344 150.636719 203.972656 151.765625 202.558594 151.894531 C 195.765625 152.484375 192.890625 159.605469 191.308594 165.359375 C 190.195312 169.429688 190.65625 171.824219 195.015625 173.460938 C 196.34375 173.949219 197.511719 174.375 198.542969 175.414062 C 201.148438 178.027344 200.867188 181.910156 198.65625 184.0625 C 198.640625 184.378906 198.582031 184.683594 198.46875 184.96875 C 203.097656 192.390625 211.476562 193.347656 219.878906 191.460938 C 224.925781 190.332031 240.734375 184.554688 235.417969 176.722656 C 231.511719 170.964844 234.671875 166.316406 240.015625 164.753906 C 238.378906 158.992188 242.707031 151.160156 249.492188 154.046875 C 254.679688 156.253906 256.558594 163.832031 253.542969 167.851562 C 257.007812 172.078125 254.3125 182.460938 246.53125 183.292969 C 246.613281 188.304688 247.910156 193.535156 252.9375 196.234375 C 259.105469 199.5625 267.851562 198.546875 267.882812 190.121094 C 267.90625 185.65625 266.828125 181.289062 265.539062 177.039062 C 264.902344 174.90625 264.199219 172.796875 263.570312 170.65625 C 263 168.777344 261.71875 167.304688 261.308594 165.34375 C 263.195312 165.300781 264.777344 165.457031 266.585938 164.964844 C 268.488281 164.425781 270.535156 164.273438 272.480469 164.007812 C 276.382812 163.480469 280.390625 162.875 283.789062 160.722656 C 287.355469 158.457031 290.65625 155.792969 293.800781 152.964844 C 295.660156 151.289062 297.667969 149.679688 299.582031 148.003906 C 300.683594 147.03125 301.742188 146.027344 302.730469 144.960938 " fill-opacity="1" fill-rule="nonzero"/></g><path fill="#ffbd59" d="M 244.988281 222.84375 C 250.140625 219.351562 243.523438 213.539062 239.109375 216.203125 C 237.386719 217.90625 235.710938 222.285156 238.550781 223.691406 C 240.519531 224.675781 243.246094 224.035156 244.988281 222.84375 Z M 249.699219 215.296875 C 252.34375 219.1875 251.144531 224.101562 247.140625 226.496094 C 243.753906 228.507812 238.347656 229.523438 235.210938 226.464844 C 231.457031 222.820312 232.582031 216.140625 236.363281 212.96875 C 236.421875 212.933594 236.460938 212.917969 236.503906 212.871094 C 236.601562 212.789062 236.683594 212.722656 236.796875 212.632812 C 240.902344 209.933594 246.9375 211.226562 249.699219 215.296875 " fill-opacity="1" fill-rule="nonzero"/><path fill="#ffbd59" d="M 191.308594 204.171875 C 193.960938 201.335938 191.121094 197.347656 188.246094 195.238281 C 186.496094 198.335938 184.074219 202.128906 187.035156 204.417969 C 187.992188 204.210938 188.980469 204.097656 189.953125 204.097656 C 190.402344 204.097656 190.859375 204.125 191.308594 204.171875 Z M 196.835938 220.382812 C 198.257812 217.144531 197.765625 212.003906 194.792969 209.714844 C 192.648438 208.390625 189.925781 208.054688 187.453125 208.628906 C 187.257812 208.734375 187.035156 208.789062 186.792969 208.800781 C 184.300781 209.582031 182.164062 211.339844 181.320312 214.054688 C 179.84375 218.789062 181.925781 222.441406 186.792969 223.339844 C 190.082031 223.929688 195.210938 224.035156 196.835938 220.382812 Z M 197.414062 206.492188 C 201.800781 210.3125 203.515625 218.144531 200.132812 223.144531 C 196.664062 228.285156 188.898438 229 183.453125 226.78125 C 177.066406 224.175781 174.511719 216.917969 178.179688 210.816406 C 179.351562 208.863281 180.929688 207.300781 182.734375 206.167969 C 179.445312 201.890625 183.453125 196.105469 185.566406 191.207031 C 186.058594 190.070312 187.496094 190.054688 188.457031 190.445312 C 193.871094 192.769531 198.429688 199.886719 195.5625 205.339844 C 195.832031 205.464844 196.101562 205.625 196.371094 205.773438 C 196.550781 205.832031 196.738281 205.929688 196.917969 206.070312 C 197.121094 206.199219 197.285156 206.339844 197.414062 206.492188 " fill-opacity="1" fill-rule="nonzero"/><path fill="#ffbd59" d="M 139.230469 222.84375 C 144.375 219.351562 137.765625 213.539062 133.34375 216.203125 C 131.625 217.90625 129.945312 222.285156 132.785156 223.691406 C 134.753906 224.675781 137.480469 224.035156 139.230469 222.84375 Z M 143.933594 215.296875 C 146.570312 219.1875 145.371094 224.101562 141.375 226.496094 C 137.988281 228.507812 132.582031 229.523438 129.445312 226.464844 C 125.691406 222.820312 126.816406 216.140625 130.597656 212.96875 C 130.65625 212.933594 130.695312 212.917969 130.738281 212.871094 C 130.835938 212.789062 130.917969 212.722656 131.03125 212.632812 C 135.144531 209.933594 141.171875 211.226562 143.933594 215.296875 " fill-opacity="1" fill-rule="nonzero"/></svg>