<svg xmlns="http://www.w3.org/2000/svg" xmlns:xlink="http://www.w3.org/1999/xlink" width="500" zoomAndPan="magnify" viewBox="0 0 375 374.999991" height="500" preserveAspectRatio="xMidYMid meet" version="1.0"><defs><clipPath id="8d9443faff"><path d="M 62.652344 62.644531 L 312.347656 62.644531 L 312.347656 312.34375 L 62.652344 312.34375 Z M 62.652344 62.644531 " clip-rule="nonzero"/></clipPath><clipPath id="492e26a098"><path d="M 62.652344 187.492188 C 62.652344 256.445312 118.546875 312.34375 187.5 312.34375 C 256.453125 312.34375 312.347656 256.445312 312.347656 187.492188 C 312.347656 118.539062 256.453125 62.644531 187.5 62.644531 C 118.546875 62.644531 62.652344 118.539062 62.652344 187.492188 Z M 62.652344 187.492188 " clip-rule="nonzero"/></clipPath><linearGradient x1="0.00000883162" gradientTransform="matrix(0, -0.975387, 0.975387, 0, 62.650497, 312.341883)" y1="0" x2="256" gradientUnits="userSpaceOnUse" y2="0" id="1fcceea08e"><stop stop-opacity="1" stop-color="rgb(100%, 96.899414%, 67.799377%)" offset="0"/><stop stop-opacity="1" stop-color="rgb(100%, 96.77887%, 67.915344%)" offset="0.0078125"/><stop stop-opacity="1" stop-color="rgb(100%, 96.540833%, 68.147278%)" offset="0.015625"/><stop stop-opacity="1" stop-color="rgb(100%, 96.30127%, 68.380737%)" offset="0.0234375"/><stop stop-opacity="1" stop-color="rgb(100%, 96.061707%, 68.614197%)" offset="0.03125"/><stop stop-opacity="1" stop-color="rgb(100%, 95.823669%, 68.84613%)" offset="0.0390625"/><stop stop-opacity="1" stop-color="rgb(100%, 95.584106%, 69.07959%)" offset="0.046875"/><stop stop-opacity="1" stop-color="rgb(100%, 95.344543%, 69.311523%)" offset="0.0546875"/><stop stop-opacity="1" stop-color="rgb(100%, 95.106506%, 69.544983%)" offset="0.0625"/><stop stop-opacity="1" stop-color="rgb(100%, 94.866943%, 69.778442%)" offset="0.0703125"/><stop stop-opacity="1" stop-color="rgb(100%, 94.62738%, 70.010376%)" offset="0.078125"/><stop stop-opacity="1" stop-color="rgb(100%, 94.387817%, 70.243835%)" offset="0.0859375"/><stop stop-opacity="1" stop-color="rgb(100%, 94.14978%, 70.475769%)" offset="0.09375"/><stop stop-opacity="1" stop-color="rgb(100%, 93.910217%, 70.709229%)" offset="0.101562"/><stop stop-opacity="1" stop-color="rgb(100%, 93.670654%, 70.941162%)" offset="0.109375"/><stop stop-opacity="1" stop-color="rgb(100%, 93.432617%, 71.174622%)" offset="0.117188"/><stop stop-opacity="1" stop-color="rgb(100%, 93.193054%, 71.408081%)" offset="0.125"/><stop stop-opacity="1" stop-color="rgb(100%, 92.953491%, 71.640015%)" offset="0.132812"/><stop stop-opacity="1" stop-color="rgb(100%, 92.715454%, 71.873474%)" offset="0.140625"/><stop stop-opacity="1" stop-color="rgb(100%, 92.475891%, 72.105408%)" offset="0.148438"/><stop stop-opacity="1" stop-color="rgb(100%, 92.236328%, 72.338867%)" offset="0.15625"/><stop stop-opacity="1" stop-color="rgb(100%, 91.998291%, 72.570801%)" offset="0.164062"/><stop stop-opacity="1" stop-color="rgb(100%, 91.758728%, 72.80426%)" offset="0.171875"/><stop stop-opacity="1" stop-color="rgb(100%, 91.519165%, 73.03772%)" offset="0.179688"/><stop stop-opacity="1" stop-color="rgb(100%, 91.281128%, 73.269653%)" offset="0.1875"/><stop stop-opacity="1" stop-color="rgb(100%, 91.041565%, 73.503113%)" offset="0.195312"/><stop stop-opacity="1" stop-color="rgb(100%, 90.802002%, 73.735046%)" offset="0.203125"/><stop stop-opacity="1" stop-color="rgb(100%, 90.563965%, 73.968506%)" offset="0.210938"/><stop stop-opacity="1" stop-color="rgb(100%, 90.324402%, 74.200439%)" offset="0.21875"/><stop stop-opacity="1" stop-color="rgb(100%, 90.084839%, 74.433899%)" offset="0.226562"/><stop stop-opacity="1" stop-color="rgb(100%, 89.846802%, 74.667358%)" offset="0.234375"/><stop stop-opacity="1" stop-color="rgb(100%, 89.607239%, 74.899292%)" offset="0.242188"/><stop stop-opacity="1" stop-color="rgb(100%, 89.367676%, 75.132751%)" offset="0.25"/><stop stop-opacity="1" stop-color="rgb(100%, 89.129639%, 75.364685%)" offset="0.257812"/><stop stop-opacity="1" stop-color="rgb(100%, 88.890076%, 75.598145%)" offset="0.265625"/><stop stop-opacity="1" stop-color="rgb(100%, 88.650513%, 75.830078%)" offset="0.273438"/><stop stop-opacity="1" stop-color="rgb(100%, 88.412476%, 76.063538%)" offset="0.28125"/><stop stop-opacity="1" stop-color="rgb(100%, 88.172913%, 76.296997%)" offset="0.289062"/><stop stop-opacity="1" stop-color="rgb(100%, 87.93335%, 76.528931%)" offset="0.296875"/><stop stop-opacity="1" stop-color="rgb(100%, 87.695312%, 76.76239%)" offset="0.304688"/><stop stop-opacity="1" stop-color="rgb(100%, 87.45575%, 76.994324%)" offset="0.3125"/><stop stop-opacity="1" stop-color="rgb(100%, 87.216187%, 77.227783%)" offset="0.320312"/><stop stop-opacity="1" stop-color="rgb(100%, 86.978149%, 77.461243%)" offset="0.328125"/><stop stop-opacity="1" stop-color="rgb(100%, 86.738586%, 77.693176%)" offset="0.335938"/><stop stop-opacity="1" stop-color="rgb(100%, 86.499023%, 77.926636%)" offset="0.34375"/><stop stop-opacity="1" stop-color="rgb(100%, 86.260986%, 78.158569%)" offset="0.351562"/><stop stop-opacity="1" stop-color="rgb(100%, 86.021423%, 78.392029%)" offset="0.359375"/><stop stop-opacity="1" stop-color="rgb(100%, 85.78186%, 78.623962%)" offset="0.367188"/><stop stop-opacity="1" stop-color="rgb(100%, 85.543823%, 78.857422%)" offset="0.375"/><stop stop-opacity="1" stop-color="rgb(100%, 85.30426%, 79.090881%)" offset="0.382812"/><stop stop-opacity="1" stop-color="rgb(100%, 85.064697%, 79.322815%)" offset="0.390625"/><stop stop-opacity="1" stop-color="rgb(100%, 84.82666%, 79.556274%)" offset="0.398438"/><stop stop-opacity="1" stop-color="rgb(100%, 84.587097%, 79.788208%)" offset="0.40625"/><stop stop-opacity="1" stop-color="rgb(100%, 84.347534%, 80.021667%)" offset="0.414062"/><stop stop-opacity="1" stop-color="rgb(100%, 84.109497%, 80.253601%)" offset="0.421875"/><stop stop-opacity="1" stop-color="rgb(100%, 83.869934%, 80.487061%)" offset="0.429688"/><stop stop-opacity="1" stop-color="rgb(100%, 83.630371%, 80.72052%)" offset="0.4375"/><stop stop-opacity="1" stop-color="rgb(100%, 83.392334%, 80.952454%)" offset="0.445312"/><stop stop-opacity="1" stop-color="rgb(100%, 83.152771%, 81.185913%)" offset="0.453125"/><stop stop-opacity="1" stop-color="rgb(100%, 82.913208%, 81.417847%)" offset="0.460938"/><stop stop-opacity="1" stop-color="rgb(100%, 82.675171%, 81.651306%)" offset="0.46875"/><stop stop-opacity="1" stop-color="rgb(100%, 82.435608%, 81.88324%)" offset="0.476562"/><stop stop-opacity="1" stop-color="rgb(100%, 82.196045%, 82.116699%)" offset="0.484375"/><stop stop-opacity="1" stop-color="rgb(100%, 81.958008%, 82.350159%)" offset="0.492188"/><stop stop-opacity="1" stop-color="rgb(100%, 81.718445%, 82.582092%)" offset="0.5"/><stop stop-opacity="1" stop-color="rgb(100%, 81.478882%, 82.815552%)" offset="0.507812"/><stop stop-opacity="1" stop-color="rgb(100%, 81.240845%, 83.047485%)" offset="0.515625"/><stop stop-opacity="1" stop-color="rgb(100%, 81.001282%, 83.280945%)" offset="0.523438"/><stop stop-opacity="1" stop-color="rgb(100%, 80.761719%, 83.514404%)" offset="0.53125"/><stop stop-opacity="1" stop-color="rgb(100%, 80.523682%, 83.746338%)" offset="0.539062"/><stop stop-opacity="1" stop-color="rgb(100%, 80.284119%, 83.979797%)" offset="0.546875"/><stop stop-opacity="1" stop-color="rgb(100%, 80.044556%, 84.211731%)" offset="0.554688"/><stop stop-opacity="1" stop-color="rgb(100%, 79.804993%, 84.44519%)" offset="0.5625"/><stop stop-opacity="1" stop-color="rgb(100%, 79.566956%, 84.677124%)" offset="0.570312"/><stop stop-opacity="1" stop-color="rgb(100%, 79.327393%, 84.910583%)" offset="0.578125"/><stop stop-opacity="1" stop-color="rgb(100%, 79.08783%, 85.144043%)" offset="0.585938"/><stop stop-opacity="1" stop-color="rgb(100%, 78.849792%, 85.375977%)" offset="0.59375"/><stop stop-opacity="1" stop-color="rgb(100%, 78.610229%, 85.609436%)" offset="0.601562"/><stop stop-opacity="1" stop-color="rgb(100%, 78.370667%, 85.84137%)" offset="0.609375"/><stop stop-opacity="1" stop-color="rgb(100%, 78.132629%, 86.074829%)" offset="0.617188"/><stop stop-opacity="1" stop-color="rgb(100%, 77.893066%, 86.306763%)" offset="0.625"/><stop stop-opacity="1" stop-color="rgb(100%, 77.653503%, 86.540222%)" offset="0.632812"/><stop stop-opacity="1" stop-color="rgb(100%, 77.415466%, 86.773682%)" offset="0.640625"/><stop stop-opacity="1" stop-color="rgb(100%, 77.175903%, 87.005615%)" offset="0.648438"/><stop stop-opacity="1" stop-color="rgb(100%, 76.93634%, 87.239075%)" offset="0.65625"/><stop stop-opacity="1" stop-color="rgb(100%, 76.698303%, 87.471008%)" offset="0.664062"/><stop stop-opacity="1" stop-color="rgb(100%, 76.45874%, 87.704468%)" offset="0.671875"/><stop stop-opacity="1" stop-color="rgb(100%, 76.219177%, 87.936401%)" offset="0.679688"/><stop stop-opacity="1" stop-color="rgb(100%, 75.98114%, 88.169861%)" offset="0.6875"/><stop stop-opacity="1" stop-color="rgb(100%, 75.741577%, 88.40332%)" offset="0.695312"/><stop stop-opacity="1" stop-color="rgb(100%, 75.502014%, 88.635254%)" offset="0.703125"/><stop stop-opacity="1" stop-color="rgb(100%, 75.263977%, 88.868713%)" offset="0.710938"/><stop stop-opacity="1" stop-color="rgb(100%, 75.024414%, 89.100647%)" offset="0.71875"/><stop stop-opacity="1" stop-color="rgb(100%, 74.784851%, 89.334106%)" offset="0.726562"/><stop stop-opacity="1" stop-color="rgb(100%, 74.546814%, 89.56604%)" offset="0.734375"/><stop stop-opacity="1" stop-color="rgb(100%, 74.307251%, 89.7995%)" offset="0.742188"/><stop stop-opacity="1" stop-color="rgb(100%, 74.067688%, 90.032959%)" offset="0.75"/><stop stop-opacity="1" stop-color="rgb(100%, 73.829651%, 90.264893%)" offset="0.757812"/><stop stop-opacity="1" stop-color="rgb(100%, 73.590088%, 90.498352%)" offset="0.765625"/><stop stop-opacity="1" stop-color="rgb(100%, 73.350525%, 90.730286%)" offset="0.773438"/><stop stop-opacity="1" stop-color="rgb(100%, 73.112488%, 90.963745%)" offset="0.78125"/><stop stop-opacity="1" stop-color="rgb(100%, 72.872925%, 91.197205%)" offset="0.789062"/><stop stop-opacity="1" stop-color="rgb(100%, 72.633362%, 91.429138%)" offset="0.796875"/><stop stop-opacity="1" stop-color="rgb(100%, 72.395325%, 91.662598%)" offset="0.804688"/><stop stop-opacity="1" stop-color="rgb(100%, 72.155762%, 91.894531%)" offset="0.8125"/><stop stop-opacity="1" stop-color="rgb(100%, 71.916199%, 92.127991%)" offset="0.820312"/><stop stop-opacity="1" stop-color="rgb(100%, 71.678162%, 92.359924%)" offset="0.828125"/><stop stop-opacity="1" stop-color="rgb(100%, 71.438599%, 92.593384%)" offset="0.835938"/><stop stop-opacity="1" stop-color="rgb(100%, 71.199036%, 92.826843%)" offset="0.84375"/><stop stop-opacity="1" stop-color="rgb(100%, 70.960999%, 93.058777%)" offset="0.851562"/><stop stop-opacity="1" stop-color="rgb(100%, 70.721436%, 93.292236%)" offset="0.859375"/><stop stop-opacity="1" stop-color="rgb(100%, 70.481873%, 93.52417%)" offset="0.867188"/><stop stop-opacity="1" stop-color="rgb(100%, 70.243835%, 93.757629%)" offset="0.875"/><stop stop-opacity="1" stop-color="rgb(100%, 70.004272%, 93.989563%)" offset="0.882812"/><stop stop-opacity="1" stop-color="rgb(100%, 69.764709%, 94.223022%)" offset="0.890625"/><stop stop-opacity="1" stop-color="rgb(100%, 69.526672%, 94.456482%)" offset="0.898438"/><stop stop-opacity="1" stop-color="rgb(100%, 69.287109%, 94.688416%)" offset="0.90625"/><stop stop-opacity="1" stop-color="rgb(100%, 69.047546%, 94.921875%)" offset="0.914062"/><stop stop-opacity="1" stop-color="rgb(100%, 68.809509%, 95.153809%)" offset="0.921875"/><stop stop-opacity="1" stop-color="rgb(100%, 68.569946%, 95.387268%)" offset="0.929688"/><stop stop-opacity="1" stop-color="rgb(100%, 68.330383%, 95.619202%)" offset="0.9375"/><stop stop-opacity="1" stop-color="rgb(100%, 68.092346%, 95.852661%)" offset="0.945312"/><stop stop-opacity="1" stop-color="rgb(100%, 67.852783%, 96.086121%)" offset="0.953125"/><stop stop-opacity="1" stop-color="rgb(100%, 67.61322%, 96.318054%)" offset="0.960938"/><stop stop-opacity="1" stop-color="rgb(100%, 67.375183%, 96.551514%)" offset="0.96875"/><stop stop-opacity="1" stop-color="rgb(100%, 67.13562%, 96.783447%)" offset="0.976562"/><stop stop-opacity="1" stop-color="rgb(100%, 66.896057%, 97.016907%)" offset="0.984375"/><stop stop-opacity="1" stop-color="rgb(100%, 66.65802%, 97.24884%)" offset="0.992188"/><stop stop-opacity="1" stop-color="rgb(100%, 66.418457%, 97.4823%)" offset="1"/></linearGradient><clipPath id="0d615a8560"><path d="M 58.5 58.5 L 316.5 58.5 L 316.5 316.5 L 58.5 316.5 Z M 58.5 58.5 " clip-rule="nonzero"/></clipPath><clipPath id="e92623ade7"><path d="M 187.5 316.5 C 153.058594 316.5 120.628906 303.09375 96.292969 278.707031 C 71.90625 254.371094 58.5 221.941406 58.5 187.5 C 58.5 153.058594 71.90625 120.628906 96.292969 96.292969 C 120.628906 71.90625 153.058594 58.5 187.5 58.5 C 221.941406 58.5 254.371094 71.90625 278.707031 96.292969 C 303.09375 120.679688 316.5 153.058594 316.5 187.5 C 316.5 221.941406 303.09375 254.371094 278.707031 278.707031 C 254.371094 303.09375 221.941406 316.5 187.5 316.5 Z M 187.5 66.234375 C 155.121094 66.234375 124.648438 78.867188 101.757812 101.757812 C 78.867188 124.648438 66.234375 155.121094 66.234375 187.5 C 66.234375 219.878906 78.867188 250.351562 101.757812 273.242188 C 124.648438 296.132812 155.121094 308.765625 187.5 308.765625 C 219.878906 308.765625 250.351562 296.132812 273.242188 273.242188 C 296.132812 250.351562 308.765625 219.878906 308.765625 187.5 C 308.765625 155.121094 296.132812 124.648438 273.242188 101.757812 C 250.351562 78.867188 219.878906 66.234375 187.5 66.234375 Z M 187.5 66.234375 " clip-rule="nonzero"/></clipPath></defs><g clip-path="url(#8d9443faff)"><g clip-path="url(#492e26a098)"><path fill="url(#1fcceea08e)" d="M 62.652344 312.34375 L 312.347656 312.34375 L 312.347656 62.644531 L 62.652344 62.644531 Z M 62.652344 312.34375 " fill-rule="nonzero"/></g></g><g clip-path="url(#0d615a8560)"><g clip-path="url(#e92623ade7)"><path fill="#100f0d" d="M 58.5 58.5 L 316.5 58.5 L 316.5 316.5 L 58.5 316.5 Z M 58.5 58.5 " fill-opacity="1" fill-rule="nonzero"/></g></g><path fill="#000000" d="M 136.03125 253.238281 C 137.382812 258.671875 142.429688 264.023438 147.757812 265.570312 C 149.308594 266.207031 152.804688 267.277344 157.890625 268.347656 C 166.277344 270.054688 176.097656 271.085938 187.34375 271.085938 C 198.59375 271.085938 208.488281 270.054688 216.875 268.308594 C 222 267.238281 225.539062 266.167969 227.445312 265.414062 C 232.375 263.90625 237.34375 258.589844 238.695312 253.238281 L 252.089844 199.695312 L 253.042969 195.96875 L 244.695312 197.832031 L 231.300781 251.414062 C 230.585938 254.1875 227.566406 257.402344 224.902344 258.234375 C 224.308594 258.472656 223.550781 258.75 222.398438 259.066406 C 220.453125 259.703125 218.066406 260.296875 215.324219 260.851562 C 207.414062 262.476562 198.074219 263.46875 187.34375 263.46875 C 176.652344 263.46875 167.3125 262.519531 159.441406 260.890625 C 156.738281 260.296875 154.394531 259.703125 152.449219 259.105469 C 151.292969 258.789062 150.578125 258.511719 150.261719 258.394531 C 147.199219 257.480469 144.140625 254.230469 143.425781 251.414062 L 129.992188 197.832031 L 121.683594 195.96875 L 122.597656 199.695312 Z M 136.03125 253.238281 " fill-opacity="1" fill-rule="nonzero"/><path fill="#000000" d="M 130.03125 203.664062 C 133.808594 204.574219 138.140625 205.488281 142.988281 206.359375 C 156.738281 208.738281 171.722656 210.207031 187.382812 210.207031 C 203.042969 210.207031 218.027344 208.738281 231.777344 206.359375 C 236.628906 205.488281 240.960938 204.574219 244.734375 203.664062 C 247.042969 203.105469 248.632812 202.710938 249.503906 202.433594 C 251.53125 201.839844 252.683594 199.734375 252.089844 197.714844 C 251.492188 195.691406 249.386719 194.539062 247.359375 195.136719 C 246.605469 195.375 245.132812 195.769531 242.949219 196.285156 C 239.332031 197.15625 235.15625 198.03125 230.46875 198.824219 C 217.113281 201.203125 202.566406 202.589844 187.382812 202.589844 C 172.199219 202.589844 157.652344 201.203125 144.300781 198.824219 C 139.609375 198.03125 135.4375 197.15625 131.820312 196.285156 C 129.632812 195.769531 128.164062 195.375 127.40625 195.136719 C 125.378906 194.539062 123.273438 195.691406 122.679688 197.714844 C 122.082031 199.734375 123.234375 201.839844 125.261719 202.433594 C 126.136719 202.710938 127.726562 203.105469 130.03125 203.664062 Z M 130.03125 203.664062 " fill-opacity="1" fill-rule="nonzero"/><path fill="#000000" d="M 126.613281 193.429688 C 123.988281 189.78125 123.511719 185.816406 126.414062 181.332031 C 129.832031 175.941406 136.667969 175.621094 166.359375 178.28125 C 174.824219 179.035156 180.824219 179.46875 187.226562 179.746094 C 241.039062 182.007812 256.421875 158.765625 226.691406 134.335938 C 225.0625 132.988281 222.636719 133.226562 221.328125 134.851562 C 219.976562 136.480469 220.214844 138.859375 221.84375 140.207031 C 244.894531 159.164062 235 174.117188 187.542969 172.132812 C 181.300781 171.894531 175.421875 171.457031 167.035156 170.703125 C 132.8125 167.652344 125.898438 167.96875 119.976562 177.210938 C 115.246094 184.625 116.121094 191.84375 120.371094 197.832031 C 121.683594 199.65625 122.996094 200.964844 123.949219 201.757812 C 125.578125 203.066406 128.003906 202.789062 129.316406 201.164062 C 130.628906 199.539062 130.347656 197.117188 128.71875 195.808594 C 128.28125 195.453125 127.449219 194.621094 126.613281 193.429688 Z M 126.613281 193.429688 " fill-opacity="1" fill-rule="nonzero"/><path fill="#000000" d="M 244.378906 166.738281 C 240.164062 165.074219 236.070312 164.519531 233.171875 164.519531 C 231.0625 164.519531 229.355469 166.222656 229.355469 168.324219 C 229.355469 170.425781 231.0625 172.132812 233.171875 172.132812 C 233.609375 172.132812 234.523438 172.171875 235.714844 172.332031 C 237.742188 172.609375 239.726562 173.085938 241.558594 173.796875 C 249.585938 176.972656 251.890625 183.476562 245.015625 197.078125 C 244.0625 198.941406 244.816406 201.242188 246.722656 202.195312 C 248.589844 203.148438 250.898438 202.394531 251.851562 200.488281 C 260.714844 183 256.621094 171.578125 244.378906 166.738281 Z M 244.378906 166.738281 " fill-opacity="1" fill-rule="nonzero"/><path fill="#000000" d="M 147.796875 156.03125 C 155.269531 153.96875 167.074219 154.246094 189.410156 156.546875 C 209.203125 158.53125 224.585938 151.390625 226.292969 138.9375 C 228.121094 125.929688 214.410156 112.800781 188.65625 103.796875 C 186.667969 103.125 184.480469 104.15625 183.765625 106.140625 C 183.089844 108.121094 184.125 110.304688 186.113281 111.015625 C 208.886719 118.910156 219.894531 129.5 218.742188 137.90625 C 217.710938 145.363281 206.421875 150.597656 190.207031 148.972656 C 166.796875 146.59375 154.515625 146.273438 145.769531 148.652344 C 133.808594 151.90625 130.148438 160.75 135.554688 174.3125 C 136.351562 176.257812 138.578125 177.25 140.523438 176.457031 C 142.472656 175.664062 143.425781 173.480469 142.671875 171.5 C 138.855469 161.941406 140.484375 158.015625 147.796875 156.03125 Z M 147.796875 156.03125 " fill-opacity="1" fill-rule="nonzero"/><path fill="#000000" d="M 175.261719 130.332031 C 184.125 131.203125 192.3125 128.546875 196.128906 123.351562 C 200.738281 117.164062 198.035156 109.628906 189.410156 104.195312 C 187.660156 103.085938 185.277344 103.601562 184.164062 105.386719 C 183.050781 107.128906 183.566406 109.511719 185.355469 110.621094 C 190.601562 113.953125 191.558594 116.6875 190.007812 118.828125 C 187.980469 121.566406 182.457031 123.390625 176.015625 122.757812 C 155.90625 120.734375 143.703125 132.195312 150.621094 151.550781 C 151.335938 153.53125 153.519531 154.5625 155.507812 153.890625 C 157.496094 153.175781 158.527344 150.992188 157.8125 149.011719 C 153.003906 135.566406 160.199219 128.824219 175.261719 130.332031 Z M 175.261719 130.332031 " fill-opacity="1" fill-rule="nonzero"/><path fill="#000000" d="M 183.566406 243.71875 C 183.566406 245.820312 185.277344 247.527344 187.382812 247.527344 C 189.488281 247.527344 191.199219 245.820312 191.199219 243.71875 L 191.199219 209.453125 C 191.199219 207.351562 189.488281 205.644531 187.382812 205.644531 C 185.277344 205.644531 183.566406 207.351562 183.566406 209.453125 Z M 183.566406 243.71875 " fill-opacity="1" fill-rule="nonzero"/><path fill="#000000" d="M 160.753906 245.226562 C 161.152344 247.289062 163.179688 248.636719 165.246094 248.199219 C 167.3125 247.804688 168.664062 245.78125 168.226562 243.71875 L 160.59375 205.644531 C 160.199219 203.582031 158.171875 202.234375 156.105469 202.671875 C 154.039062 203.066406 152.726562 205.089844 153.125 207.152344 Z M 160.753906 245.226562 " fill-opacity="1" fill-rule="nonzero"/><path fill="#000000" d="M 206.539062 243.71875 C 206.144531 245.78125 207.457031 247.804688 209.523438 248.199219 C 211.589844 248.636719 213.617188 247.289062 214.011719 245.226562 L 221.644531 207.152344 L 214.171875 205.644531 Z M 206.539062 243.71875 " fill-opacity="1" fill-rule="nonzero"/></svg>